<?xml version="1.0" encoding="UTF-8" standalone="no"?>
<!-- Created with Inkscape (http://www.inkscape.org/) -->

<svg
   width="119.71938mm"
   height="45.363678mm"
   viewBox="0 0 119.71938 45.363678"
   version="1.1"
   id="svg2636"
   inkscape:version="1.2.2 (b0a8486541, 2022-12-01)"
   sodipodi:docname="unesp_gmsint.svg"
   xmlns:inkscape="http://www.inkscape.org/namespaces/inkscape"
   xmlns:sodipodi="http://sodipodi.sourceforge.net/DTD/sodipodi-0.dtd"
   xmlns="http://www.w3.org/2000/svg"
   xmlns:svg="http://www.w3.org/2000/svg">
  <sodipodi:namedview
     id="namedview2638"
     pagecolor="#505050"
     bordercolor="#eeeeee"
     borderopacity="1"
     inkscape:showpageshadow="0"
     inkscape:pageopacity="0"
     inkscape:pagecheckerboard="0"
     inkscape:deskcolor="#505050"
     inkscape:document-units="mm"
     showgrid="false"
     showguides="true"
     inkscape:zoom="1.0280428"
     inkscape:cx="161.47188"
     inkscape:cy="168.76729"
     inkscape:window-width="1920"
     inkscape:window-height="1003"
     inkscape:window-x="0"
     inkscape:window-y="40"
     inkscape:window-maximized="1"
     inkscape:current-layer="layer1">
    <sodipodi:guide
       position="-20.140308,32.927935"
       orientation="-1,0"
       id="guide3483"
       inkscape:locked="false"
       inkscape:label=""
       inkscape:color="rgb(0,134,229)" />
    <sodipodi:guide
       position="139.85969,20.916905"
       orientation="-1,0"
       id="guide3485"
       inkscape:locked="false"
       inkscape:label=""
       inkscape:color="rgb(0,134,229)" />
    <sodipodi:guide
       position="13.539155,45.247305"
       orientation="0,-1"
       id="guide7225"
       inkscape:locked="false" />
    <sodipodi:guide
       position="110.17185,5.9198859e-06"
       orientation="0,-1"
       id="guide7227"
       inkscape:locked="false" />
  </sodipodi:namedview>
  <defs
     id="defs2633">
    <clipPath
       clipPathUnits="userSpaceOnUse"
       id="clipPath790">
      <path
         d="M 0,0 H 389 V 272 H 0 Z"
         id="path788" />
    </clipPath>
    <clipPath
       clipPathUnits="userSpaceOnUse"
       id="clipPath808">
      <path
         d="M 0,0 H 389 V 272 H 0 Z"
         id="path806" />
    </clipPath>
  </defs>
  <g
     inkscape:label="Layer 1"
     inkscape:groupmode="layer"
     id="layer1"
     transform="translate(-45.140308,-81.468668)">
    <g
       id="g7615"
       transform="translate(-10.082439)">
      <g
         id="g7514"
         transform="translate(12.096205)">
        <g
           id="g880"
           transform="matrix(0.02955147,0,0,0.02955147,43.126542,81.468661)">
          <path
             d="m 739.281,1534.734 c -18.148,-0.582 -34.07,-1.597 -46.5,-2.961 -16.406,-1.8 -28.082,-3.175 -32.25,-3.8 -23.222,-3.469 -43.48,-7.133 -60.375,-10.922 -94.191,-21.129 -181.703,-58.817 -261.75,-112.719 C 278.918,1364.27 222.586,1313.289 176.719,1257.996 81.797,1143.574 22.48,1005.934 5.098,859.746 0.961,824.953 0,807.562 0,767.496 0,727.43 0.961,710.043 5.098,675.246 26.68,493.758 113.438,325.191 249.156,201.047 c 99.567,-91.074 219.391,-153.578 351,-183.102 16.895,-3.789 37.153,-7.457 60.375,-10.925 4.168,-0.622 15.821,-1.993 32.25,-3.797 39.117,-4.297 110.133,-4.297 149.25,0 16.434,1.804 28.086,3.175 32.25,3.797 23.223,3.468 43.481,7.136 60.375,10.925 128.489,28.821 245.024,88.7 344.25,176.883 13.239,11.762 41.032,39.188 53.629,52.918 112.777,122.906 181.695,275.84 198.731,441 2.808,27.203 3.558,43.797 3.558,78.75 0,34.953 -0.75,51.551 -3.558,78.75 -17.036,165.164 -85.954,318.098 -198.731,441 -12.597,13.731 -40.39,41.156 -53.629,52.922 -99.226,88.184 -215.761,148.059 -344.25,176.883 -24.054,5.394 -54.734,10.531 -78.75,13.179 -4.328,0.477 -10.574,1.176 -13.875,1.551 -22.804,2.598 -70.816,3.977 -102.75,2.953 z"
             style="fill:#a5a7aa;fill-opacity:1;fill-rule:nonzero;stroke:none"
             id="path882" />
          <path
             d="m 814.656,1355.164 c 113.215,-9.309 217.203,-48.652 307.418,-116.312 89.246,-66.938 157.297,-157.192 197.41,-261.821 46.293,-120.758 50.981,-257.304 13.102,-381.808 -36.883,-121.231 -111.895,-227.34 -214.18,-302.969 -86.457,-63.93 -187.461,-102.516 -295.125,-112.746 -34.203,-3.25 -78.5,-3.086 -114.375,0.422 -114.043,11.148 -223.582,56.363 -313.125,129.246 -35.093,28.566 -69.375,63.906 -96.828,99.82 -65.539,85.746 -106.109,187.547 -117.605,295.125 -4.219,39.457 -4.223,86.184 -0.012,125.25 10.375,96.254 42.82,185.875 96.039,265.297 102.031,152.258 269.273,249.203 449.906,260.801 7.016,0.453 14.438,0.945 16.5,1.093 8.629,0.629 58.059,-0.347 70.875,-1.398 z"
             style="fill:#ffffff;fill-opacity:1;fill-rule:nonzero;stroke:none"
             id="path884" />
          <path
             d="m 734.406,1347.539 c -1.855,-0.148 -7.761,-0.625 -13.125,-1.059 -116.703,-9.406 -225.359,-52.421 -316.488,-125.292 -55.992,-44.778 -102.152,-98.227 -139.578,-161.618 -8.309,-14.074 -25.5,-48.136 -31.766,-62.949 -21.394,-50.543 -34.996,-100.125 -41.976,-153 -6.344,-48.051 -6.344,-104.199 0,-152.25 11.191,-84.75 40.433,-164.601 86.992,-237.547 32.973,-51.652 77.379,-100.875 126.328,-140.015 86.43,-69.114 190.508,-112.098 299.613,-123.75 22.75,-2.426 28.852,-2.688 63.375,-2.684 38.496,0.004 47.75,0.547 77.469,4.551 148.559,20.004 282.238,95.988 376.617,214.07 67.805,84.836 110.563,188.024 122.602,295.875 2.633,23.567 3.062,32.824 3.062,65.625 0,32.805 -0.429,42.059 -3.062,65.625 -20.664,185.121 -130.235,349.703 -293.938,441.527 -63.523,35.633 -133.027,58.766 -205.699,68.465 -28.148,3.758 -36.945,4.301 -72.926,4.508 -18.765,0.106 -35.64,0.07 -37.5,-0.082 z"
             style="fill:#4dc8f4;fill-opacity:1;fill-rule:nonzero;stroke:none"
             id="path886" />
          <path
             d="m 602.516,401.422 c 40.414,-17.543 90.722,-35.438 126.265,-44.91 16.176,-4.309 20.836,-5.461 34.5,-8.528 35.735,-8.023 74.321,-14.129 111.75,-17.691 19.047,-1.813 24.739,-2.41 24.938,-2.609 0.277,-0.274 -24.699,-11.344 -35.633,-15.793 -50.859,-20.696 -99.051,-32.438 -157.246,-38.317 l -11.192,-1.129 -2.953,2.836 c -6.406,6.157 -29.816,31.106 -36.812,39.239 -10.27,11.937 -21.824,26.496 -31.059,39.144 -7.551,10.34 -35.418,51.762 -35.418,52.648 0,0.692 0,0.696 12.86,-4.89 z"
             style="fill:#ffffff;fill-opacity:1;fill-rule:nonzero;stroke:none"
             id="path888" />
          <path
             d="m 564.641,410.309 c 3.902,-6.215 26.078,-39.317 32.031,-47.813 20.293,-28.965 39,-51.926 64.133,-78.715 4.273,-4.554 7.57,-8.285 7.324,-8.285 -1.317,0 -42.285,13.996 -52.223,17.84 -33.703,13.035 -61.965,27.5 -93.375,47.777 -8.875,5.735 -35.879,24.77 -38.863,27.399 -0.656,0.574 5.781,4.343 38.113,22.316 11.141,6.188 24.641,13.817 30,16.953 5.364,3.133 10,5.699 10.305,5.707 0.305,0.004 1.453,-1.426 2.555,-3.179 z"
             style="fill:#ffffff;fill-opacity:1;fill-rule:nonzero;stroke:none"
             id="path890" />
          <path
             d="m 1164.832,508.746 c 1.613,-27.672 2.508,-65.277 2.039,-85.5 -0.48,-20.668 -1.914,-54.93 -2.316,-55.348 -0.403,-0.41 -32.946,-6.828 -46.149,-9.097 -50.519,-8.684 -88.836,-12.508 -133.125,-13.285 l -25.5,-0.45 12.254,7.606 c 68.406,42.437 119.328,89.773 180.121,167.43 l 10.875,13.89 0.496,-5.683 c 0.274,-3.129 0.86,-11.93 1.305,-19.563 z"
             style="fill:#ffffff;fill-opacity:1;fill-rule:nonzero;stroke:none"
             id="path892" />
          <path
             d="m 415.281,505.645 c 37.535,-26.856 79.434,-52.547 113.438,-69.563 5.054,-2.527 9.187,-4.723 9.187,-4.875 0,-0.375 -21.336,-15.211 -33.75,-23.469 -10.765,-7.16 -24.187,-15.461 -32.308,-19.98 l -4.938,-2.75 -7.883,9.933 c -30.574,38.528 -54.089,75.676 -74.179,117.18 -6.309,13.035 -11.192,23.547 -11.192,24.102 0,0.144 6.16,-4.383 13.688,-10.063 7.531,-5.676 20.101,-14.91 27.937,-20.515 z"
             style="fill:#ffffff;fill-opacity:1;fill-rule:nonzero;stroke:none"
             id="path894" />
          <path
             d="m 793.285,574.934 c 35.024,-79.442 72.137,-154.661 104.813,-212.438 9.207,-16.277 9.879,-14.894 -6.567,-13.535 -85.949,7.094 -171.781,27.504 -262.5,62.414 -20.316,7.82 -44.683,18.074 -44.453,18.707 0.113,0.309 6.039,4.473 13.168,9.254 47.926,32.141 107.777,78.973 175.285,137.164 7.426,6.402 13.699,11.664 13.946,11.691 0.242,0.032 3.082,-5.933 6.308,-13.257 z"
             style="fill:#ffffff;fill-opacity:1;fill-rule:nonzero;stroke:none"
             id="path896" />
          <path
             d="m 842.348,589.723 c 98.078,-20.555 194.199,-32.121 290.121,-34.911 l 17.433,-0.507 -3.519,-4.965 c -49.852,-70.352 -110.86,-130.82 -176.133,-174.567 -13.855,-9.289 -30.652,-19.777 -31.672,-19.777 -0.316,0 -6.465,11.055 -13.668,24.563 -36.254,68.015 -63.691,124.183 -84.91,173.812 -7.672,17.945 -16.344,39.207 -16.344,40.074 0,0.321 1.746,0.129 3.879,-0.422 2.133,-0.554 8.797,-2.039 14.813,-3.3 z"
             style="fill:#ffffff;fill-opacity:1;fill-rule:nonzero;stroke:none"
             id="path898" />
          <path
             d="m 432.418,721.555 c 1.172,-5.051 2.902,-12.051 3.844,-15.559 0.941,-3.504 2.789,-10.422 4.105,-15.375 10.68,-40.09 27.082,-89.309 42.246,-126.75 14.508,-35.812 34.188,-75.387 51.75,-104.062 2.715,-4.434 4.797,-8.063 4.629,-8.063 -0.465,0 -23.765,13.43 -37.461,21.586 -48.984,29.188 -90.129,57.719 -122.957,85.27 -4.929,4.136 -9.426,7.871 -9.996,8.3 -0.777,0.59 -0.844,1.235 -0.269,2.625 0.421,1.016 2.461,7.246 4.539,13.844 13.945,44.352 27.519,82.078 40.332,112.086 6.363,14.902 15.988,35.293 16.656,35.285 0.246,-0.004 1.406,-4.137 2.582,-9.187 z"
             style="fill:#ffffff;fill-opacity:1;fill-rule:nonzero;stroke:none"
             id="path900" />
          <path
             d="m 516.391,700.711 c 71.886,-33.125 144.382,-60.242 226.64,-84.781 9.903,-2.953 18.438,-5.602 18.973,-5.887 1.715,-0.914 -45.492,-43.543 -81.973,-74.023 -34.824,-29.094 -84.703,-67.27 -111.894,-85.633 l -4.641,-3.137 -9.961,17.438 c -11.734,20.546 -31.57,59.71 -40.168,79.308 -24.312,55.406 -39.695,103.434 -57.66,180 -0.629,2.684 -1.309,5.457 -1.512,6.164 -0.254,0.879 6.887,-2.359 22.59,-10.246 12.629,-6.344 30.453,-14.984 39.606,-19.203 z"
             style="fill:#ffffff;fill-opacity:1;fill-rule:nonzero;stroke:none"
             id="path902" />
          <path
             d="m 323.805,807.539 c 23.957,-16.121 49.73,-31.867 78.351,-47.871 7.219,-4.035 13.399,-7.586 13.727,-7.895 0.332,-0.304 -2.926,-7.628 -7.242,-16.273 -22.172,-44.422 -39.512,-87.895 -52.297,-131.129 -2.074,-7.012 -3.949,-13.254 -4.168,-13.875 -0.809,-2.297 -12.551,33.418 -19.356,58.875 -13.062,48.871 -19.824,89.977 -24.433,148.5 -1.696,21.539 -1.664,20.832 -0.895,20.5 0.32,-0.137 7.66,-5.012 16.313,-10.832 z"
             style="fill:#ffffff;fill-opacity:1;fill-rule:nonzero;stroke:none"
             id="path904" />
          <path
             d="m 1072.492,894.621 c 45.637,-108.687 73.274,-206.746 84.106,-298.43 l 1.32,-11.179 -22.059,0.508 c -68.019,1.562 -147.437,9.859 -223.328,23.335 -24.855,4.415 -62.656,11.915 -79.691,15.813 l -5.442,1.246 20.379,20.715 c 74.016,75.254 143.364,159.023 208.004,251.269 7.66,10.93 9.766,13.485 10.192,12.375 0.293,-0.769 3.23,-7.812 6.519,-15.652 z"
             style="fill:#ffffff;fill-opacity:1;fill-rule:nonzero;stroke:none"
             id="path906" />
          <path
             d="m 667.41,997.52 c 3.793,-19.024 13.098,-63.692 14.09,-67.649 0.203,-0.824 2.262,-10.105 4.57,-20.625 7.532,-34.32 17.047,-72.859 26.297,-106.5 14.168,-51.519 31.926,-105.516 49.016,-149.035 2.398,-6.098 4.254,-11.199 4.129,-11.336 -0.469,-0.516 -36.524,10.656 -64.856,20.098 -82.293,27.414 -159.836,60.187 -233.812,98.82 -7.528,3.934 -13.688,7.535 -13.688,8.008 0,2.695 26.188,44.09 40.801,64.5 34.988,48.855 80.25,97.203 131.988,140.972 17.528,14.829 38.973,31.965 39.43,31.508 0.199,-0.199 1.113,-4.14 2.035,-8.761 z"
             style="fill:#ffffff;fill-opacity:1;fill-rule:nonzero;stroke:none"
             id="path908" />
          <path
             d="m 739.656,1017.918 c 100.215,-8.277 192.242,-31.23 277.875,-69.305 6.188,-2.75 12.516,-5.527 14.063,-6.172 1.547,-0.644 2.812,-1.421 2.812,-1.73 0,-0.309 -4.59,-7.598 -10.203,-16.199 C 967.367,837.406 907.668,760.02 844.348,691.371 c -18.321,-19.859 -41.91,-43.953 -42.453,-43.351 -1.754,1.953 -23.165,64.902 -33.618,98.851 -20.57,66.793 -35.136,124.844 -48.554,193.5 -4.875,24.934 -5.414,27.774 -6.7,35.25 -0.64,3.715 -2.191,12.656 -3.453,19.875 -1.258,7.219 -2.711,15.746 -3.222,18.945 l -0.934,5.817 8.309,-0.442 c 4.57,-0.242 16.242,-1.097 25.933,-1.898 z"
             style="fill:#ffffff;fill-opacity:1;fill-rule:nonzero;stroke:none"
             id="path910" />
          <path
             d="m 1027.68,1072.184 c -15.047,-0.02 -34.274,0.367 -43.336,1.043 l -6.188,0.464 v 143.805 h 31.5 v -53.285 l 6.188,0.582 c 11.656,1.094 36.379,0.613 42.187,-0.816 17.922,-4.415 24.871,-14.016 26.543,-36.676 0.793,-10.742 -0.172,-24.156 -2.23,-30.93 -4.629,-15.242 -13.473,-21.195 -35.188,-23.68 -2.922,-0.336 -10.449,-0.496 -19.476,-0.507 z m -4.535,23.82 c 8.41,-0.043 18.007,0.719 20.828,1.863 6.57,2.668 9.183,8.645 9.183,21.004 0,12.344 -2.582,18.27 -9.183,21.059 -2.625,1.113 -5.942,1.406 -18.754,1.66 l -15.563,0.308 v -45.023 l 5.766,-0.539 c 2.246,-0.211 4.918,-0.316 7.723,-0.332 z"
             style="fill:#ffffff;fill-opacity:1;fill-rule:nonzero;stroke:none"
             id="path912" />
          <path
             d="m 616.398,1165.934 c -0.222,-28.36 -0.628,-52.829 -0.906,-54.375 -0.39,-2.2 -0.258,-2.813 0.602,-2.813 0.695,0 1.715,1.867 2.765,5.063 2.504,7.632 4.676,12.3 23.043,49.519 9.309,18.863 18.075,36.774 19.477,39.805 3.582,7.722 6.762,12.078 9.719,13.312 1.824,0.766 6.058,1.051 15.472,1.051 14.782,0 17.231,-0.66 19.524,-5.25 1.218,-2.441 1.312,-7.391 1.312,-70.703 v -68.078 l -29.625,0.406 v 45.375 c 0,24.957 0.25,49.027 0.559,53.492 0.75,10.895 -0.434,10.61 -5.738,-1.367 -5.461,-12.324 -43.625,-90.07 -45.528,-92.742 -3.07,-4.309 -4.937,-4.758 -19.793,-4.758 -15.234,0 -17.207,0.524 -19.398,5.145 -1.106,2.332 -1.227,9.195 -1.227,70.531 v 67.949 h 30.145 z"
             style="fill:#ffffff;fill-opacity:1;fill-rule:nonzero;stroke:none"
             id="path914" />
          <path
             d="m 825.121,1216.727 c 4.313,-0.43 7.984,-0.93 8.16,-1.102 0.172,-0.176 0.02,-5.309 -0.34,-11.41 l -0.66,-11.094 -30.172,-0.375 -30.168,-0.375 -2.082,-2.078 -2.078,-2.078 -0.453,-34.469 h 57.078 v -22.5 h -57 v -12.824 c 0,-14.039 0.66,-16.961 4.199,-18.57 1.297,-0.594 10.825,-0.856 31.036,-0.856 27.132,0 29.191,-0.09 29.547,-1.312 0.207,-0.719 0.609,-6.079 0.89,-11.907 l 0.512,-10.593 -5.152,-0.473 c -2.836,-0.262 -18.786,-0.684 -35.446,-0.941 -31.664,-0.489 -34.672,-0.29 -41.781,2.757 -3.777,1.621 -8.867,6.051 -11.16,9.715 -4.203,6.715 -4.145,5.852 -4.145,59.735 0,48.144 0.051,49.843 1.528,53.789 3.589,9.597 10.507,15.16 22.097,17.761 3.844,0.864 55.262,0.235 65.59,-0.8 z"
             style="fill:#ffffff;fill-opacity:1;fill-rule:nonzero;stroke:none"
             id="path916" />
          <path
             d="m 924.156,1218.695 c 16.703,-2.746 25.688,-9.465 29.184,-21.824 1.555,-5.496 2.363,-17.809 1.633,-24.859 -1.278,-12.375 -5.567,-20.739 -13.852,-27.012 -5.324,-4.035 -10.375,-6.434 -21.84,-10.375 -31.73,-10.906 -33.261,-11.633 -35.402,-16.75 -0.762,-1.832 -1.035,-4.508 -0.856,-8.469 0.223,-4.867 0.551,-6.101 2.059,-7.703 3.441,-3.664 5.086,-3.84 35.375,-3.734 l 28.172,0.093 0.937,-10.484 c 0.516,-5.766 0.778,-10.644 0.582,-10.84 -0.765,-0.765 -18.55,-3.937 -26.308,-4.695 -18.379,-1.785 -41.375,-0.648 -51.742,2.566 -14.395,4.457 -20.637,15.243 -20.637,35.637 0,15.371 3.184,24.297 11.414,31.984 6.414,5.997 10.594,8.012 33.156,15.985 10.727,3.793 20.637,7.594 22.028,8.453 3.457,2.137 5.312,6.512 5.332,12.578 0.019,5.942 -1.575,9.477 -5.235,11.602 -2.531,1.468 -3.715,1.519 -33.043,1.422 l -30.418,-0.102 -0.906,10.93 c -0.496,6.011 -0.644,11.179 -0.328,11.488 0.703,0.691 12.141,2.711 22.695,4.012 11.071,1.359 39.957,1.418 48,0.097 z"
             style="fill:#ffffff;fill-opacity:1;fill-rule:nonzero;stroke:none"
             id="path918" />
          <path
             d="m 522.906,1218.258 c 12.082,-2.492 20.426,-7.672 26.438,-16.406 2.773,-4.032 4.746,-8.969 6.785,-16.981 1.445,-5.691 1.539,-8.707 1.824,-58.687 l 0.297,-52.688 h -31.594 v 47.063 c 0,48.82 -0.363,55.711 -3.277,62.535 -1.649,3.859 -4.684,7.226 -8.07,8.957 -6.551,3.34 -22.504,3.336 -29.063,-0.01 -6.023,-3.074 -9.184,-8.922 -10.558,-19.547 -0.403,-3.098 -0.743,-26.586 -0.754,-52.328 l -0.024,-46.699 -15.562,0.199 -15.563,0.203 v 51 c 0,49.711 0.047,51.188 1.645,58.399 3.226,14.542 10.039,24.578 20.34,29.968 9.371,4.899 17.277,6.321 35.761,6.414 11.446,0.059 15.653,-0.214 21.375,-1.394 z"
             style="fill:#ffffff;fill-opacity:1;fill-rule:nonzero;stroke:none"
             id="path920" />
          <path
             d="m 92.199,518.977 c -6.422,0.019 -7.015,0.332 -7.933,1.461 -0.704,0.859 -2.926,6.429 -4.946,12.378 -3.547,10.457 -3.867,12.801 -2.109,15.395 0.316,0.461 12.891,9.547 27.945,20.187 15.059,10.645 31.934,22.645 37.5,26.664 5.571,4.024 10.43,7.243 10.797,7.153 0.371,-0.09 2.145,-4.34 3.938,-9.442 1.797,-5.101 3.183,-9.339 3.078,-9.418 -0.102,-0.078 -4.832,-3.238 -10.508,-7.019 -9.063,-6.039 -10.27,-7.082 -9.883,-8.547 0.238,-0.914 2.524,-7.742 5.07,-15.168 l 4.633,-13.5 2.625,0.024 c 1.446,0.011 7.188,0.269 12.766,0.574 l 10.14,0.551 3.157,-9.532 c 1.734,-5.238 3.074,-9.59 2.98,-9.668 -0.293,-0.242 -64.742,-1.871 -80.664,-2.039 -3.66,-0.039 -6.449,-0.062 -8.586,-0.054 z m 2.074,16.937 c 0.278,-0.328 38.215,2.199 38.602,2.566 0.301,0.29 -6.605,22.094 -6.957,21.969 -0.074,-0.027 -4.356,-2.89 -9.512,-6.363 -5.156,-3.473 -12.488,-8.262 -16.297,-10.641 -5.781,-3.613 -6.847,-4.57 -6.468,-5.824 0.25,-0.824 0.535,-1.594 0.632,-1.707 z"
             style="fill:#ffffff;fill-opacity:1;fill-rule:nonzero;stroke:none"
             id="path922" />
          <path
             d="m 807.824,135.496 c 1.762,-0.469 1.785,-0.586 1.356,-7.195 -0.239,-3.696 -0.621,-6.903 -0.852,-7.133 -0.226,-0.227 -8.262,-0.555 -17.855,-0.723 -9.59,-0.172 -18.489,-0.633 -19.766,-1.027 -1.32,-0.406 -2.699,-1.531 -3.187,-2.602 -0.938,-2.058 -1.157,-12.972 -0.372,-18.691 l 0.493,-3.582 36.89,0.578 0.219,-6.937 0.215,-6.938 -2.09,-0.094 c -1.152,-0.05 -9.516,-0.304 -18.594,-0.562 l -16.5,-0.469 0.199,-9 c 0.29,-13.164 -1.14,-12.43 23.012,-11.848 l 19.078,0.461 0.371,-1.804 c 0.204,-0.996 0.539,-4.227 0.747,-7.184 0.3,-4.34 0.156,-5.461 -0.758,-5.808 -2.164,-0.833 -30.149,-2.09 -40.118,-1.805 -10.964,0.308 -13.886,1.219 -18.054,5.609 -4.328,4.563 -4.504,5.758 -5.262,35.879 -0.879,34.856 -0.723,38.34 1.879,42.274 1.086,1.64 3.102,3.843 4.484,4.894 4.672,3.566 8.797,4.106 31.672,4.149 11.551,0.023 21.809,-0.176 22.793,-0.442 z"
             style="fill:#ffffff;fill-opacity:1;fill-rule:nonzero;stroke:none"
             id="path924" />
          <path
             d="m 701.059,47.121 -11.637,0.035 c -8.156,0.028 -14.781,0.528 -22.141,1.684 -14.969,2.351 -22.109,3.64 -22.543,4.074 -0.324,0.328 7.953,69.32 10.262,85.52 l 0.832,5.812 h 2.348 c 1.297,-0.004 7.922,-0.512 14.726,-1.133 24.348,-2.222 30.715,-3.414 38.278,-7.164 4.312,-2.14 9.48,-7.101 11.535,-11.078 5.945,-11.492 3.699,-45.711 -4.071,-62 -3.136,-6.582 -6.781,-10.43 -12.57,-13.277 z m -16.387,15.441 c 6.078,-0.117 9.016,1.258 11.976,4.629 4.7,5.356 7.969,20.309 8.071,36.93 0.058,9.883 -0.047,10.699 -1.821,13.867 -2.668,4.762 -6.511,6.672 -15.964,7.938 -9.766,1.308 -13.274,1.344 -13.282,0.133 0,-0.516 -1.679,-14.418 -3.726,-30.899 -2.047,-16.476 -3.598,-30.082 -3.449,-30.23 0.148,-0.149 3.597,-0.746 7.664,-1.328 4.355,-0.622 7.765,-0.985 10.531,-1.04 z"
             style="fill:#ffffff;fill-opacity:1;fill-rule:nonzero;stroke:none"
             id="path926" />
          <path
             d="m 915.922,150.434 c 0.012,-0.309 0.465,-3.543 1.016,-7.192 0.714,-4.754 0.761,-6.703 0.171,-6.894 -0.457,-0.149 -4.707,-0.985 -9.453,-1.864 -19.875,-3.672 -27.269,-5.277 -28.304,-6.136 -2.282,-1.895 -2.344,-4.047 -0.407,-14.18 1.055,-5.527 1.973,-10.121 2.043,-10.211 0.067,-0.09 8.168,1.336 18.004,3.164 9.836,1.832 18.113,3.188 18.399,3.012 0.281,-0.176 0.933,-2.781 1.449,-5.789 0.512,-3.008 1.078,-6.004 1.258,-6.653 0.273,-0.992 -2.567,-1.711 -17.493,-4.433 -9.804,-1.789 -18.046,-3.449 -18.32,-3.696 -0.742,-0.656 2.305,-15.925 3.567,-17.878 1.539,-2.383 3.878,-2.243 23.722,1.441 9.371,1.742 17.246,2.961 17.496,2.711 0.442,-0.441 4.125,-13.609 3.848,-13.77 -1.594,-0.921 -20.563,-5.16 -35.18,-7.859 -9.789,-1.809 -12.449,-2.055 -15.64,-1.449 -5.106,0.969 -9.243,3.387 -11.586,6.773 -2.293,3.305 -2.77,4.926 -5.168,17.594 -1.016,5.359 -3.41,17.848 -5.324,27.746 -4.161,21.512 -4.266,26.191 -0.715,31.203 3.422,4.824 8.265,7.114 19.562,9.242 10.098,1.903 27.215,4.684 31.789,5.164 4.934,0.52 5.25,0.516 5.266,-0.046 z"
             style="fill:#ffffff;fill-opacity:1;fill-rule:nonzero;stroke:none"
             id="path928" />
          <path
             d="m 580.281,162.754 c 16.727,-5.645 30.383,-11.066 30.352,-12.051 -0.051,-1.578 -5.121,-12.832 -5.735,-12.726 -0.339,0.058 -8.519,2.695 -18.179,5.863 -11.192,3.668 -18.196,5.598 -19.301,5.32 -0.957,-0.238 -2.258,-1.226 -2.891,-2.191 -1.695,-2.586 -7.211,-19.438 -6.558,-20.028 0.312,-0.277 7.988,-2.957 17.062,-5.953 9.078,-2.992 16.731,-5.57 17.008,-5.726 0.883,-0.496 -3.918,-13.7 -4.871,-13.391 -0.488,0.156 -8.156,2.668 -17.043,5.582 -8.887,2.91 -16.484,5.293 -16.883,5.293 -0.93,0 -5.633,-13.976 -5.605,-16.656 0.011,-1.117 0.672,-2.637 1.465,-3.375 0.793,-0.738 9.402,-3.985 19.125,-7.211 9.722,-3.231 17.679,-5.93 17.679,-6.008 0,-0.664 -3.734,-13.484 -4.008,-13.758 -0.558,-0.558 -15.929,3.719 -31.3,8.715 -15.438,5.012 -18.91,6.969 -22.137,12.473 -3.715,6.34 -3.375,8.195 7.48,40.59 9.559,28.531 11.981,34.144 15.801,36.648 6.707,4.395 12.133,4.125 28.539,-1.41 z"
             style="fill:#ffffff;fill-opacity:1;fill-rule:nonzero;stroke:none"
             id="path930" />
          <path
             d="m 1005.789,176.047 c 0.941,-0.66 2.063,-2.094 2.488,-3.188 2.203,-5.66 27.602,-81.39 27.371,-81.621 -0.148,-0.148 -4.171,-1.582 -8.945,-3.183 l -8.672,-2.914 -0.797,1.992 c -1.664,4.172 -16.754,49.562 -18.679,56.199 -1.114,3.828 -2.36,7.031 -2.774,7.125 -0.426,0.094 -1.129,-3.539 -1.629,-8.461 -1.98,-19.351 -8.359,-63.558 -9.484,-65.742 -0.793,-1.527 -2.234,-2.656 -4.406,-3.453 -13.364,-4.895 -17.082,-5.289 -19.461,-2.055 -0.758,1.031 -6.746,17.738 -13.309,37.125 -6.558,19.391 -12.777,37.676 -13.82,40.645 l -1.891,5.39 9.074,3.035 c 4.989,1.668 9.176,2.93 9.305,2.801 0.59,-0.586 19.848,-58.637 20.563,-61.976 0.507,-2.371 1.203,-3.77 1.871,-3.77 0.824,0 1.062,1.289 1.062,5.734 0,7.426 8.055,66.715 9.426,69.36 1.059,2.047 2.223,2.621 12.699,6.234 6.324,2.184 7.774,2.285 10.008,0.723 z"
             style="fill:#ffffff;fill-opacity:1;fill-rule:nonzero;stroke:none"
             id="path932" />
          <path
             d="m 480.531,104.176 c -6.273,0.043 -8.418,0.394 -13.125,2.14 -5.437,2.024 -36.988,17.649 -39.226,19.43 -0.946,0.75 -0.496,2.121 3.125,9.527 2.324,4.758 6.734,13.872 9.797,20.25 3.066,6.379 8.992,18.688 13.175,27.348 4.18,8.664 8.731,18.203 10.11,21.203 2.168,4.719 2.715,5.391 4.074,4.996 0.863,-0.25 7.141,-2.824 13.945,-5.722 21.004,-8.934 28.117,-12.871 34.199,-18.926 6.887,-6.86 8.125,-10.199 7.614,-20.559 -0.418,-8.539 -2.426,-15.14 -8.379,-27.57 -7.762,-16.207 -16.168,-26.797 -24.223,-30.516 -2.976,-1.375 -4.859,-1.644 -11.086,-1.601 z m -5.019,17.664 c 6.55,0.082 10.918,4.887 17.191,15.824 4.426,7.719 9.836,21.008 10.649,26.164 1.484,9.391 -1.329,13.106 -14.801,19.524 -5.074,2.418 -9.293,4.394 -9.375,4.394 -0.082,0 -4.16,-8.351 -9.059,-18.562 -4.902,-10.207 -11.055,-23.051 -13.672,-28.536 l -4.757,-9.972 8.796,-4.192 c 6.383,-3.043 11.098,-4.691 15.028,-4.644 z"
             style="fill:#ffffff;fill-opacity:1;fill-rule:nonzero;stroke:none"
             id="path934" />
          <path
             d="m 1098.703,195.195 c 6.692,-12.55 12.176,-22.992 12.188,-23.199 0.011,-0.277 -12.668,-7.039 -16.598,-8.848 -0.27,-0.125 -3.934,6.227 -8.145,14.118 -4.21,7.886 -8.105,14.515 -8.656,14.726 -2.039,0.781 -11.293,-1.265 -15.84,-3.504 -10.691,-5.261 -11.05,-12.176 -1.613,-31.019 9.848,-19.66 17.238,-26.692 25.797,-24.535 3.953,0.996 13.289,5.554 23.836,11.644 3.973,2.293 7.48,4.156 7.793,4.141 0.312,-0.016 2.344,-2.629 4.512,-5.813 l 3.945,-5.785 -3.75,-3.426 c -2.059,-1.883 -7.356,-5.574 -11.766,-8.203 -34.336,-20.453 -50.551,-15.418 -68.867,21.379 -6.254,12.567 -8.285,18.156 -9.359,25.731 -1.731,12.199 2.343,20.503 13.168,26.847 7.074,4.149 20.168,6.098 27.265,4.063 1.414,-0.407 2.668,-0.641 2.793,-0.516 0.121,0.121 -0.328,2.145 -1,4.5 -0.668,2.356 -1.082,4.399 -0.922,4.539 1.325,1.145 11.711,6.391 12.297,6.215 0.414,-0.125 6.227,-10.5 12.922,-23.055 z"
             style="fill:#ffffff;fill-opacity:1;fill-rule:nonzero;stroke:none"
             id="path936" />
          <path
             d="m 382.961,153.379 c -2.02,-0.027 -4.219,1.086 -11.188,5.527 -11.441,7.293 -12.367,8.156 -12.363,11.535 0,1.473 1.82,9.094 4.051,16.93 2.227,7.84 7.644,27.078 12.035,42.75 4.395,15.676 8.141,28.961 8.332,29.52 0.289,0.851 0.621,0.843 2.024,-0.047 0.925,-0.586 4.804,-3.028 8.617,-5.426 3.816,-2.402 6.933,-4.574 6.929,-4.832 -0.007,-0.254 -1.644,-5.695 -3.636,-12.09 -3.246,-10.394 -3.504,-11.711 -2.43,-12.445 7.988,-5.481 25.816,-16.117 26.527,-15.824 0.508,0.207 4.735,3.785 9.399,7.949 4.66,4.164 8.84,7.57 9.289,7.57 0.945,0 17.062,-9.937 17.031,-10.5 -0.012,-0.203 -16.129,-13.875 -35.82,-30.375 -30.188,-25.297 -36.207,-30.035 -38.399,-30.223 -0.132,-0.011 -0.265,-0.015 -0.398,-0.019 z m -3,18.402 c 1.078,0.008 2.57,1.313 7.094,5.617 3.601,3.422 9.992,9.254 14.199,12.957 4.211,3.704 7.652,6.911 7.652,7.125 0,0.54 -18.402,12.016 -19.265,12.016 -0.387,0 -3.145,-7.676 -6.129,-17.062 -2.989,-9.383 -5.598,-17.567 -5.801,-18.188 -0.207,-0.629 0.328,-1.555 1.215,-2.098 0.363,-0.226 0.676,-0.367 1.035,-0.367 z"
             style="fill:#ffffff;fill-opacity:1;fill-rule:nonzero;stroke:none"
             id="path938" />
          <path
             d="m 1159.672,252.133 c 0.59,-1.028 -1.891,-3.098 -14.715,-12.289 -8.484,-6.078 -15.789,-11.848 -16.234,-12.824 -0.575,-1.27 -0.575,-2.282 0.01,-3.559 1.239,-2.715 11.708,-16.914 12.493,-16.941 0.379,-0.012 6.961,4.468 14.625,9.96 7.664,5.489 14.324,10.211 14.793,10.497 0.523,0.308 2.492,-1.747 5.015,-5.227 l 4.16,-5.734 -1.64,-1.246 c -0.903,-0.684 -7.633,-5.551 -14.953,-10.817 -7.325,-5.262 -13.313,-9.734 -13.313,-9.933 0,-0.618 9.242,-12.598 10.465,-13.563 2.871,-2.262 5.137,-1.18 20.113,9.613 8.071,5.813 15.067,10.723 15.543,10.907 0.481,0.183 2.965,-2.192 5.52,-5.282 l 4.644,-5.613 -4.5,-3.746 c -13.386,-11.141 -32.328,-24.484 -36.918,-26.008 -5.132,-1.703 -10.156,-1.14 -14.675,1.649 -2.954,1.82 -6.641,6.382 -21.45,26.546 -9.836,13.391 -18.582,25.7 -19.437,27.348 -2.035,3.934 -2.16,10.969 -0.254,14.625 0.75,1.445 2.426,3.758 3.719,5.145 2.785,2.976 18.933,14.593 31.121,22.386 l 8.652,5.532 3.258,-5.094 c 1.789,-2.801 3.574,-5.649 3.965,-6.332 v 0 z"
             style="fill:#ffffff;fill-opacity:1;fill-rule:nonzero;stroke:none"
             id="path940" />
          <path
             d="m 313.41,208.043 c -7.164,0.074 -14.371,3.477 -22.629,10.082 -5.801,4.641 -29.644,26.66 -29.59,27.328 0.02,0.231 4.493,5.387 9.938,11.457 5.445,6.074 19.183,21.488 30.527,34.262 11.344,12.769 20.848,23.242 21.121,23.273 0.274,0.028 5.84,-4.226 12.375,-9.461 15.489,-12.398 26.258,-23.148 29.18,-29.113 1.965,-4.016 2.199,-5.262 2.199,-11.625 0,-6.715 -0.16,-7.453 -2.828,-12.91 -3.945,-8.078 -10.656,-16.746 -20.773,-26.84 -11.184,-11.156 -20.313,-16.555 -29.52,-16.453 z m -4.683,19.543 c 5.25,-0.191 10.617,3.254 18.855,11.488 12.73,12.723 19.027,22.242 19.059,28.809 0.031,5.828 -2.575,9.262 -14.707,19.39 l -3.774,3.153 -20.41,-22.864 c -11.223,-12.574 -20.582,-23.316 -20.797,-23.874 -0.515,-1.344 12.375,-12.887 16.461,-14.743 1.824,-0.828 3.563,-1.297 5.313,-1.359 z"
             style="fill:#ffffff;fill-opacity:1;fill-rule:nonzero;stroke:none"
             id="path942" />
          <path
             d="m 1236.156,311.59 c 5.985,-6.16 19.989,-20.559 31.125,-32 l 20.25,-20.797 -6.75,-6.27 c -3.711,-3.453 -6.953,-6.273 -7.203,-6.273 -0.574,-0.004 -39.601,40.23 -44.34,45.707 -1.945,2.25 -3.73,3.891 -3.968,3.652 -0.239,-0.238 2.433,-8.996 5.933,-19.461 11.742,-35.101 16.203,-49.503 16.203,-52.289 0,-2.472 -0.66,-3.425 -6.187,-8.902 -6.598,-6.539 -9.239,-8.082 -12.028,-7.019 -1.414,0.539 -30.656,29.328 -32.007,31.515 -0.227,0.371 -7.297,7.649 -15.707,16.172 l -15.289,15.496 6.66,6.691 c 3.664,3.68 6.902,6.606 7.199,6.5 0.715,-0.253 35.422,-35.98 42.773,-44.031 3.18,-3.484 5.969,-6.152 6.196,-5.926 0.226,0.227 -0.391,2.235 -1.368,4.465 -2.554,5.817 -18.789,54.922 -21.418,64.778 -1.132,4.254 0.512,7.074 7.973,13.683 9.031,8 8.531,8.129 21.953,-5.691 z"
             style="fill:#ffffff;fill-opacity:1;fill-rule:nonzero;stroke:none"
             id="path944" />
          <path
             d="m 281.246,358.434 c 4.203,-2.153 7.738,-5.735 18.699,-18.942 8.285,-9.984 14.223,-18.031 13.649,-18.504 -0.172,-0.14 -2.938,-2.215 -6.149,-4.609 -5.086,-3.793 -5.953,-4.199 -6.75,-3.188 -0.504,0.641 -5.625,6.606 -11.383,13.258 -10.355,11.969 -12.164,13.422 -15.593,12.516 -0.926,-0.246 -13.824,-10.746 -28.66,-23.332 -14.836,-12.586 -27.168,-22.887 -27.403,-22.887 -0.789,0 -12.867,14.274 -12.617,14.91 0.559,1.438 58.231,49.715 60.984,51.055 4.387,2.133 10.75,2.016 15.223,-0.277 z"
             style="fill:#ffffff;fill-opacity:1;fill-rule:nonzero;stroke:none"
             id="path946" />
          <path
             d="m 1310.406,374.793 c 48.317,-37.5 45.879,-35.488 44.821,-36.953 -5.442,-7.496 -11.344,-14.266 -12.071,-13.836 -0.48,0.281 -6.847,5.164 -14.152,10.851 l -13.274,10.333 -10.164,-12.754 c -5.586,-7.016 -10.148,-12.993 -10.136,-13.286 0.011,-0.289 5.945,-5.082 13.187,-10.652 7.242,-5.566 13.445,-10.461 13.785,-10.875 0.68,-0.82 -11,-15.871 -12.074,-15.566 -0.582,0.168 -70.609,54.199 -72.219,55.726 -0.617,0.586 4.579,7.981 9.829,13.989 l 2.093,2.394 9,-7.098 c 4.953,-3.906 12.285,-9.636 16.297,-12.734 l 7.293,-5.637 10.145,12.754 c 5.578,7.012 10.121,13.012 10.093,13.336 -0.023,0.324 -6.629,5.649 -14.671,11.836 -8.043,6.188 -15.34,11.805 -16.211,12.481 -1.571,1.218 -1.539,1.285 4.359,8.777 3.269,4.148 6.285,7.555 6.695,7.562 0.414,0.012 12.735,-9.281 27.375,-20.648 z"
             style="fill:#ffffff;fill-opacity:1;fill-rule:nonzero;stroke:none"
             id="path948" />
          <path
             d="m 226.996,431.172 c 7.246,-3.543 16.57,-14.617 22.387,-26.582 2.637,-5.43 3.097,-7.129 3.379,-12.488 0.289,-5.469 0.097,-6.696 -1.598,-10.407 -2.141,-4.668 -7.914,-11.203 -13.633,-15.414 -4.75,-3.504 -52.062,-33.789 -52.742,-33.765 -0.277,0.011 -2.941,3.703 -5.918,8.207 l -5.414,8.191 25.664,16.488 c 14.113,9.067 27.106,17.727 28.875,19.246 3.77,3.239 6.16,7.528 6.16,11.047 0,5.684 -6.82,15.344 -12.308,17.442 -3.059,1.168 -3.598,1.172 -7.477,0.043 -5.344,-1.555 -5.273,-1.512 -34.449,-20.16 -13.699,-8.758 -24.879,-15.434 -25.215,-15.063 -0.336,0.367 -2.844,4.031 -5.57,8.148 -3.879,5.848 -4.758,7.668 -4.035,8.34 2.109,1.95 49.714,31.989 54.578,34.438 2.902,1.461 7.035,3.152 9.187,3.758 5.531,1.558 13.219,0.933 18.129,-1.469 z"
             style="fill:#ffffff;fill-opacity:1;fill-rule:nonzero;stroke:none"
             id="path950" />
          <path
             d="m 1381.762,381.258 c -1.09,0.004 -15.649,3.176 -32.356,7.043 -16.703,3.871 -36.449,8.437 -43.875,10.152 -7.422,1.711 -14.051,3.274 -14.726,3.477 -1.008,0.3 -0.364,1.82 3.558,8.402 2.633,4.422 4.907,8.379 5.051,8.789 0.156,0.441 5.316,-0.547 12.566,-2.406 9.528,-2.445 12.489,-2.953 13.122,-2.25 1.593,1.762 15.406,26.105 15.168,26.738 -0.129,0.352 -4.051,4.586 -8.715,9.414 -7.989,8.27 -8.414,8.867 -7.434,10.391 0.57,0.887 2.856,4.738 5.074,8.562 2.219,3.821 4.285,6.856 4.598,6.75 0.312,-0.109 13.824,-14.394 30.027,-31.75 36.032,-38.586 34.336,-36.652 34.336,-39.183 0,-2.289 -10.386,-20.707 -12.875,-22.828 -0.847,-0.719 -2.429,-1.305 -3.519,-1.301 z m -3.973,18.109 c 0.813,0.02 0.965,0.504 1.273,1.477 0.426,1.344 -1.648,3.758 -12.878,15 -7.364,7.371 -13.559,13.402 -13.77,13.398 -0.211,-0.004 -3.004,-4.441 -6.207,-9.863 -3.203,-5.418 -5.734,-9.926 -5.625,-10.016 0.109,-0.09 6.277,-1.746 13.699,-3.687 7.426,-1.942 15.645,-4.18 18.27,-4.977 2.953,-0.902 4.426,-1.351 5.238,-1.332 z"
             style="fill:#ffffff;fill-opacity:1;fill-rule:nonzero;stroke:none"
             id="path952" />
          <path
             d="m 181.367,503.141 c 8.817,-2.621 15.317,-9.395 22.676,-23.645 4.707,-9.109 7.848,-17.121 8.691,-22.168 l 0.508,-3.043 -6.304,-2.394 c -3.469,-1.317 -6.61,-2.379 -6.981,-2.364 -0.371,0.02 -3.59,6.024 -7.152,13.344 -3.563,7.32 -7.426,14.438 -8.59,15.82 -5.809,6.907 -13.945,6.125 -31.988,-3.07 -16.289,-8.301 -21.946,-13.809 -21.836,-21.269 0.047,-3.321 0.746,-5.25 4.312,-11.93 2.34,-4.383 5.746,-10.492 7.57,-13.574 l 3.313,-5.606 -5.777,-4.097 c -3.176,-2.254 -6.114,-4.11 -6.528,-4.122 -2.785,-0.078 -17.453,23.516 -20.539,33.047 -6.304,19.446 2.781,32.981 31.805,47.383 16.156,8.02 27.637,10.414 36.82,7.688 z"
             style="fill:#ffffff;fill-opacity:1;fill-rule:nonzero;stroke:none"
             id="path954" />
          <path
             d="m 1423.074,449.676 c -0.683,-0.227 -83.32,36.246 -84.289,37.203 -0.762,0.75 7.285,17.773 8.293,17.547 0.484,-0.106 7.688,-3.227 16.016,-6.938 8.324,-3.707 15.527,-6.742 16.004,-6.742 1.234,0 7.812,15.078 7.812,17.902 0,3.282 -3.035,6.36 -16.332,16.575 l -11.195,8.597 1.683,3.778 c 6.856,15.379 7.032,15.683 8.414,14.511 0.719,-0.609 6.79,-5.613 13.489,-11.113 13.699,-11.25 15.937,-14.242 15.945,-21.336 l 0.01,-3.789 2.996,3.496 c 6.773,7.899 15.578,8.688 27.91,2.492 8.332,-4.183 13.492,-9.566 14.543,-15.168 0.688,-3.664 -0.137,-11.843 -1.641,-16.32 -2.96,-8.809 -18.113,-40.18 -19.652,-40.695 v 0 z m -4.851,24.082 c 0.379,0.23 2.48,4.39 4.679,9.242 4.868,10.742 5.223,14.008 1.907,17.469 -4.133,4.316 -13.664,7.679 -17.278,6.093 -2.953,-1.296 -5.672,-5.14 -9.363,-13.226 -2.063,-4.52 -3.75,-8.57 -3.754,-9.008 -0.01,-0.992 22.875,-11.148 23.809,-10.57 z"
             style="fill:#ffffff;fill-opacity:1;fill-rule:nonzero;stroke:none"
             id="path956" />
          <path
             d="m 1395.285,581.082 c 17.578,-4.934 67.32,-18.926 69.852,-19.648 0.883,-0.25 1.191,-0.805 0.89,-1.598 -0.257,-0.668 -1.492,-4.926 -2.746,-9.465 -1.258,-4.535 -2.343,-8.316 -2.418,-8.398 -0.07,-0.082 -3.496,0.816 -7.605,1.996 -8.313,2.386 -48.5,13.683 -68.227,19.176 -7.011,1.953 -12.988,3.761 -13.277,4.019 -0.289,0.254 0.308,3.332 1.328,6.836 1.023,3.504 2.203,7.637 2.621,9.184 0.418,1.546 1.063,2.812 1.426,2.812 0.363,0 8.535,-2.211 18.156,-4.914 z"
             style="fill:#ffffff;fill-opacity:1;fill-rule:nonzero;stroke:none"
             id="path958" />
          <path
             d="m 143.738,659.309 c 1.594,-7.442 3.379,-17.352 3.164,-17.567 -0.285,-0.285 -30.492,-6.109 -35.183,-6.785 -1.801,-0.262 -2.813,-0.805 -2.813,-1.519 0,-0.614 1.203,-7.403 2.676,-15.09 1.473,-7.688 2.863,-15.055 3.094,-16.375 0.469,-2.703 0.855,-2.512 -8.504,-4.266 l -5.36,-1.004 -3.132,16.582 c -1.727,9.125 -3.254,16.965 -3.395,17.43 -0.18,0.594 -3.015,0.32 -9.504,-0.914 -7.804,-1.489 -9.511,-2.063 -10.937,-3.699 -0.926,-1.067 -1.684,-2.508 -1.68,-3.207 0.008,-0.7 1.488,-8.868 3.301,-18.149 1.812,-9.281 3.199,-16.973 3.086,-17.09 -0.629,-0.672 -13.602,-3.711 -14.02,-3.289 -1.875,1.895 -9.633,38.582 -9.605,45.445 0.008,2.797 0.547,5.735 1.394,7.602 1.762,3.871 6.739,8.152 10.805,9.285 3.84,1.071 72.227,14.11 74.582,14.219 1.16,0.055 1.781,-0.438 2.031,-1.609 z"
             style="fill:#ffffff;fill-opacity:1;fill-rule:nonzero;stroke:none"
             id="path960" />
          <path
             d="m 1382.77,594.383 c -0.426,0.429 2.652,18.906 3.25,19.488 0.281,0.274 5.914,1.07 12.511,1.766 6.602,0.699 12.129,1.39 12.289,1.543 0.25,0.234 5.332,29.91 5.336,31.144 0,0.246 -5.078,2.75 -11.285,5.563 -6.207,2.816 -11.394,5.312 -11.535,5.551 -0.246,0.421 2.355,16.746 2.969,18.621 0.168,0.515 0.433,0.937 0.59,0.937 0.16,0 8.523,-4.008 18.585,-8.91 56.125,-27.328 65.817,-32.234 66.602,-33.695 1.164,-2.176 0.992,-5.11 -0.949,-16.434 -1.754,-10.223 -2.754,-12.437 -5.969,-13.227 -2.98,-0.73 -92.102,-12.64 -92.394,-12.347 z m 45.265,24.769 c 1.363,-0.058 6.594,0.336 12.656,0.965 6.926,0.723 15.461,1.524 18.965,1.785 6.172,0.453 6.383,0.532 6.602,2.426 0.187,1.606 -0.211,2.129 -2.25,2.93 -1.36,0.539 -9.145,3.961 -17.297,7.609 -8.149,3.649 -15.074,6.629 -15.387,6.629 -0.316,0 -1.351,-4.926 -2.301,-10.945 -0.949,-6.02 -1.546,-11.125 -1.324,-11.344 0.028,-0.027 0.141,-0.047 0.336,-0.055 z"
             style="fill:#ffffff;fill-opacity:1;fill-rule:nonzero;stroke:none"
             id="path962" />
          <path
             d="m 1456.707,857.684 c 1.742,-7.321 3.379,-13.551 3.633,-13.848 0.254,-0.293 3.836,2.352 7.953,5.875 4.121,3.527 9.082,7.758 11.031,9.402 l 3.539,2.989 -3.82,-9.239 c -2.102,-5.082 -4.629,-11.066 -5.613,-13.293 -0.985,-2.23 -1.633,-4.211 -1.438,-4.406 0.192,-0.195 6.578,0.113 14.192,0.684 7.613,0.574 13.714,0.836 13.558,0.582 -0.156,-0.25 -5.515,-3.629 -11.906,-7.508 -6.395,-3.879 -11.629,-7.219 -11.633,-7.426 -0.01,-0.203 5.555,-3.719 12.356,-7.805 6.796,-4.089 12.273,-7.492 12.168,-7.566 -0.106,-0.074 -4.918,0.293 -10.696,0.813 -5.773,0.523 -12.261,0.972 -14.418,1.003 -3.769,0.055 -3.894,-0.007 -3.254,-1.632 0.368,-0.926 2.875,-7.024 5.579,-13.543 l 4.906,-11.856 -3.532,2.981 c -1.941,1.64 -6.898,5.867 -11.019,9.39 -4.117,3.528 -7.699,6.172 -7.953,5.875 -0.254,-0.293 -1.926,-6.609 -3.715,-14.035 l -3.246,-13.5 -3.34,13.875 c -1.84,7.633 -3.449,14.004 -3.582,14.16 -0.195,0.227 -7.898,-6.14 -21.414,-17.699 -0.68,-0.582 1.258,4.914 4.32,12.234 3.059,7.313 5.391,13.457 5.188,13.664 -0.43,0.43 -24.844,-1.253 -26.926,-1.859 -3.027,-0.879 -0.086,1.25 11.113,8.047 6.418,3.895 11.668,7.25 11.668,7.453 0,0.207 -5.25,3.563 -11.668,7.457 -11.918,7.231 -13.793,8.633 -10.707,7.992 2.895,-0.601 26.145,-2.179 26.524,-1.8 0.195,0.195 -2.012,6.035 -4.899,12.976 -2.886,6.945 -5.14,12.734 -5.011,12.863 0.132,0.133 5.043,-3.843 10.914,-8.836 5.871,-4.992 10.781,-8.953 10.914,-8.8 0.129,0.152 1.691,6.433 3.472,13.961 1.778,7.531 3.317,13.687 3.414,13.687 0.098,0 1.606,-5.988 3.348,-13.312 z"
             style="fill:#ffffff;fill-opacity:1;fill-rule:nonzero;stroke:none"
             id="path964" />
          <path
             d="m 85.691,856.746 c 1.711,-7.219 3.227,-13.242 3.364,-13.383 0.136,-0.144 5.039,3.836 10.894,8.84 5.856,5.008 10.766,8.985 10.91,8.844 0.145,-0.145 -2.113,-5.934 -5.015,-12.863 -2.899,-6.93 -5.098,-12.778 -4.883,-12.993 0.219,-0.214 6.566,0.106 14.105,0.711 7.543,0.606 13.821,1.024 13.95,0.93 0.129,-0.098 -5.188,-3.492 -11.813,-7.547 -6.625,-4.058 -12.043,-7.551 -12.039,-7.769 0,-0.215 5.418,-3.723 12.039,-7.793 6.617,-4.067 11.93,-7.469 11.805,-7.555 -0.125,-0.086 -6.387,0.344 -13.914,0.957 -7.532,0.617 -13.879,0.93 -14.106,0.703 -0.23,-0.23 1.957,-6.09 4.856,-13.019 2.902,-6.93 5.156,-12.719 5.011,-12.864 -0.144,-0.144 -5.046,3.84 -10.89,8.86 -5.844,5.015 -10.75,9 -10.903,8.843 -0.152,-0.152 -1.734,-6.418 -3.519,-13.929 -1.781,-7.508 -3.449,-13.246 -3.703,-12.75 -0.258,0.496 -1.555,5.629 -2.883,11.402 -3.484,15.133 -3.672,15.652 -5.18,14.481 -1.851,-1.434 -16.668,-14.067 -19.117,-16.297 l -2.117,-1.934 1.496,3.75 c 0.82,2.063 3.359,8.223 5.641,13.688 l 4.148,9.937 -3.898,-0.055 c -2.145,-0.031 -8.621,-0.48 -14.399,-1.003 -5.773,-0.52 -10.59,-0.883 -10.699,-0.809 -0.109,0.078 5.207,3.426 11.813,7.441 6.609,4.012 12.011,7.586 12.011,7.934 0,0.351 -5.398,3.926 -12,7.937 -6.601,4.016 -11.918,7.364 -11.812,7.438 0.101,0.074 5.25,-0.301 11.437,-0.832 6.188,-0.531 12.668,-0.988 14.399,-1.008 l 3.148,-0.043 -4.148,9.938 c -2.282,5.468 -4.797,11.558 -5.59,13.539 l -1.442,3.601 9.032,-7.726 c 4.968,-4.25 10,-8.504 11.183,-9.453 l 2.153,-1.731 0.754,2.481 c 0.414,1.363 1.652,6.359 2.753,11.101 2.747,11.836 3.547,14.754 3.821,13.875 0.129,-0.41 1.633,-6.656 3.347,-13.875 z"
             style="fill:#ffffff;fill-opacity:1;fill-rule:nonzero;stroke:none"
             id="path966" />
          <path
             d="m 116.957,1061.824 c 0.098,-0.031 -1.008,-2.863 -2.457,-6.297 -4.402,-10.437 -8.594,-23.574 -8.594,-26.929 0,-8.145 7.071,-13.485 26.27,-19.84 17.625,-5.836 26.57,-4.926 30.664,3.113 1.055,2.074 7.535,21.5 9.445,28.309 0.153,0.543 2.598,0.293 7.422,-0.75 l 7.195,-1.559 v -2.449 c 0,-3.586 -2.726,-15.598 -5.226,-22.992 -4.731,-13.992 -9.992,-21.489 -18.02,-25.66 -3.984,-2.075 -4.48,-2.145 -14.625,-2.094 -9.961,0.054 -10.965,0.203 -19.496,2.871 -27.851,8.719 -39.027,17.16 -41.676,31.476 -1.855,10.043 4.504,31.387 13.559,45.493 l 2.352,3.664 6.503,-3.149 c 3.579,-1.734 6.586,-3.176 6.684,-3.207 z"
             style="fill:#ffffff;fill-opacity:1;fill-rule:nonzero;stroke:none"
             id="path968" />
          <path
             d="m 1366.492,1000.172 c -3.562,-0.063 -4.082,0.371 -5.172,1.23 -1.332,1.047 -3.187,4.629 -5.773,11.133 -4.723,11.875 -5.02,13.086 -3.766,15.461 1.117,2.121 71.828,58.984 72.989,58.695 0.402,-0.101 1.632,-2.519 2.73,-5.375 1.098,-2.855 2.691,-6.937 3.543,-9.066 l 1.543,-3.875 -10.078,-7.566 -10.078,-7.563 1.57,-3.937 c 0.867,-2.164 3.418,-8.661 5.672,-14.438 2.258,-5.773 4.328,-10.719 4.605,-10.988 0.278,-0.27 5.907,0.113 12.504,0.851 6.602,0.735 12.203,1.125 12.453,0.864 0.61,-0.641 7.551,-18.243 7.27,-18.43 -0.121,-0.082 -12.371,-1.078 -27.223,-2.211 -14.847,-1.133 -32.566,-2.523 -39.375,-3.086 -13.25,-1.094 -19.855,-1.641 -23.414,-1.699 z m 4.465,17.219 c 0.336,0.015 0.746,0.074 1.254,0.168 1.32,0.25 9.766,1.273 18.762,2.281 8.996,1.008 16.531,2 16.738,2.211 0.375,0.371 -7.078,19.812 -7.981,20.828 -0.246,0.277 -7.027,-4.395 -15.074,-10.375 -8.043,-5.984 -14.91,-11.156 -15.261,-11.492 -0.352,-0.34 -0.403,-1.356 -0.114,-2.258 0.328,-1.039 0.672,-1.406 1.676,-1.363 z"
             style="fill:#ffffff;fill-opacity:1;fill-rule:nonzero;stroke:none"
             id="path970" />
          <path
             d="m 233.25,1077.375 3.93,-11.875 -3.325,-6.277 -3.324,-6.282 -11.699,-3.906 -11.703,-3.91 -1.223,2.375 c -0.672,1.305 -1.699,3.102 -2.281,3.996 -1.023,1.574 -0.738,1.805 9.113,7.363 11.696,6.602 10.77,4.657 9.008,18.942 -0.641,5.183 -0.891,9.683 -0.562,10.004 0.566,0.543 3.218,1.078 6.617,1.332 1.316,0.093 2.039,-1.465 5.449,-11.762 z"
             style="fill:#ffffff;fill-opacity:1;fill-rule:nonzero;stroke:none"
             id="path972" />
          <path
             d="m 198.016,1060.34 c -3.59,-0.024 -12.645,1.555 -41.485,6.797 -14.918,2.711 -43.113,7.691 -46.687,8.246 -1.75,0.273 -3.188,0.808 -3.188,1.195 0,0.797 7.324,15.613 8.348,16.887 0.492,0.609 4,0.148 12.789,-1.688 6.66,-1.394 12.168,-2.449 12.238,-2.343 0.071,0.105 3.387,6.496 7.371,14.207 l 7.239,14.015 -4.668,4.36 c -2.563,2.398 -6.692,6.277 -9.172,8.625 l -4.512,4.265 4.473,9.047 4.468,9.043 3.403,-3.277 c 1.871,-1.801 16.73,-16.172 33.023,-31.938 16.297,-15.765 30.086,-29.531 30.649,-30.59 1.359,-2.562 0.582,-4.929 -5.344,-16.296 -3.113,-5.973 -5.336,-9.344 -6.645,-10.075 -0.515,-0.285 -1.105,-0.472 -2.3,-0.48 z m -5.426,18.086 c 0.933,0.023 1.254,0.312 1.605,0.793 1.274,1.742 1.164,1.957 -2.519,4.91 -1.711,1.371 -8.004,6.965 -13.985,12.43 -5.98,5.468 -11,9.937 -11.156,9.937 -0.156,0 -2.555,-4.336 -5.332,-9.641 -2.773,-5.3 -5.047,-9.964 -5.047,-10.363 0,-0.394 2.282,-1.156 5.063,-1.695 2.785,-0.535 11.121,-2.313 18.527,-3.949 8.004,-1.77 11.281,-2.461 12.844,-2.422 z"
             style="fill:#ffffff;fill-opacity:1;fill-rule:nonzero;stroke:none"
             id="path974" />
          <path
             d="m 1345.453,1065.207 c -1.93,-0.016 -3.715,0.227 -5.258,0.738 -7.32,2.414 -13.656,10.465 -23.062,29.301 -5.117,10.25 -10.477,22.195 -10.477,23.352 0,0.597 11.188,6.504 45.375,23.957 13.203,6.738 26.703,13.695 30,15.453 3.301,1.762 6.082,3.211 6.184,3.219 0.097,0.011 2.172,-3.95 4.601,-8.801 l 4.422,-8.817 -15.851,-8.168 c -8.723,-4.492 -15.953,-8.242 -16.071,-8.336 -0.582,-0.449 8.434,-16.261 9.825,-17.238 2.562,-1.793 7.742,-1.324 21.246,1.918 6.953,1.672 13.199,3.203 13.879,3.403 0.937,0.273 2.328,-1.708 5.808,-8.278 2.516,-4.75 4.66,-9.015 4.766,-9.48 0.121,-0.524 -4.367,-1.805 -11.809,-3.364 -24.117,-5.062 -26.418,-5.105 -32.293,-0.625 l -3.41,2.606 0.606,-2.836 c 1.023,-4.844 0.582,-10.129 -1.129,-13.453 -2.094,-4.07 -5.871,-7.137 -13.407,-10.895 -4.73,-2.359 -9.695,-3.625 -13.945,-3.656 z m -0.137,20.496 c 0.872,0.047 1.809,0.219 2.84,0.508 7.926,2.219 13.66,7.887 12.934,12.785 -0.442,2.981 -9.067,21.059 -9.969,20.895 -0.324,-0.063 -5.312,-2.575 -11.09,-5.59 -5.773,-3.016 -10.836,-5.617 -11.25,-5.781 -1.07,-0.426 7.051,-16.778 9.789,-19.715 2.129,-2.278 4.137,-3.246 6.746,-3.102 z"
             style="fill:#ffffff;fill-opacity:1;fill-rule:nonzero;stroke:none"
             id="path976" />
          <path
             d="m 1368.543,1187.828 c 2.867,-4.5 4.773,-8.211 4.398,-8.574 -0.363,-0.352 -17.773,-11.602 -38.691,-25.004 l -38.031,-24.367 -5.336,8.254 c -2.934,4.539 -5.121,8.472 -4.86,8.746 1.219,1.265 76.567,49.363 76.985,49.14 0.262,-0.14 2.75,-3.828 5.535,-8.195 z"
             style="fill:#ffffff;fill-opacity:1;fill-rule:nonzero;stroke:none"
             id="path978" />
          <path
             d="m 246.676,1224.625 c 18.07,-14.023 33.617,-26.242 34.543,-27.152 3.25,-3.192 2.426,-5.762 -5.387,-16.774 -6.969,-9.82 -9.047,-11.871 -12.094,-11.926 -1.718,-0.031 -49.41,18.836 -55.734,22.047 -2.91,1.477 -4.258,1.817 -4.848,1.227 -0.59,-0.594 0.766,-2.43 4.891,-6.621 8.734,-8.883 36.613,-41.551 37.094,-43.477 0.238,-0.933 0.238,-2.461 0.004,-3.39 -0.442,-1.731 -11.34,-17.598 -14.172,-20.625 -3.586,-3.836 -4,-3.625 -43.332,22.007 -19.996,13.032 -36.442,23.774 -36.543,23.871 -0.157,0.153 9.711,14.336 10.574,15.2 0.168,0.168 14.601,-9.129 32.082,-20.653 23.641,-15.589 32.023,-20.757 32.734,-20.175 1.254,1.023 2.395,-0.434 -19.664,25.05 -10.289,11.887 -19.176,22.559 -19.754,23.711 -1.441,2.891 -0.539,5.133 5.516,13.672 5.191,7.324 7.711,9.195 11.191,8.324 1.043,-0.261 14.246,-5.398 29.34,-11.41 18.496,-7.367 27.692,-10.683 28.203,-10.172 0.414,0.418 0.547,1.094 0.293,1.508 -0.324,0.52 -52.215,40.875 -59.613,46.36 -0.527,0.39 10.531,15.355 11.18,15.125 0.351,-0.125 15.429,-11.704 33.496,-25.727 z"
             style="fill:#ffffff;fill-opacity:1;fill-rule:nonzero;stroke:none"
             id="path980" />
          <path
             d="m 1316.598,1253.926 c 4.621,-1.649 7.656,-4.496 15.464,-14.52 8.051,-10.34 19.594,-26.32 19.594,-27.133 0,-0.64 -10.929,-8.293 -11.754,-8.226 -0.34,0.027 -4.668,5.289 -9.621,11.691 -4.949,6.407 -10.308,13.153 -11.91,14.992 -4.176,4.801 -5.871,4.465 -15.785,-3.109 -4.32,-3.297 -7.871,-6.285 -7.891,-6.637 -0.019,-0.351 4.856,-6.851 10.836,-14.449 5.985,-7.597 10.875,-14.105 10.875,-14.465 0,-0.355 -2.414,-2.508 -5.363,-4.781 l -5.367,-4.133 -1.629,1.985 c -0.899,1.089 -5.926,7.464 -11.176,14.168 -5.246,6.703 -9.816,12.187 -10.152,12.187 -0.789,0 -7.84,-5.465 -11.5,-8.906 -1.844,-1.735 -2.813,-3.317 -2.813,-4.59 0,-1.371 3.422,-6.293 11.625,-16.723 6.395,-8.129 11.606,-15.031 11.578,-15.343 -0.07,-0.836 -9.484,-8.789 -10.609,-8.957 -1.902,-0.286 -27.672,30.953 -30.742,37.269 -3.387,6.973 -1.766,15.32 4.019,20.707 2.61,2.422 42.813,34.051 46.754,36.774 4.715,3.261 10.36,4.058 15.567,2.199 z"
             style="fill:#ffffff;fill-opacity:1;fill-rule:nonzero;stroke:none"
             id="path982" />
          <path
             d="m 294.125,1203.246 c -0.348,0 -15.508,14.199 -33.691,31.551 l -33.055,31.551 6.508,7.074 c 3.578,3.89 6.754,7.074 7.054,7.074 0.301,0 6.051,-5.234 12.774,-11.633 6.723,-6.398 12.433,-11.375 12.687,-11.062 0.254,0.312 2.407,2.996 4.782,5.961 8.789,10.972 18.16,18.441 24.679,19.664 4.055,0.765 6.692,0.336 11.727,-1.903 5.058,-2.246 13.402,-9.007 17.887,-14.492 10.472,-12.801 9.289,-21.957 -4.907,-37.922 -7.086,-7.968 -25.379,-25.863 -26.445,-25.863 z m 3.363,23.84 6.184,6.398 c 7.156,7.399 9.23,10.477 9.234,13.696 0.004,4.554 -7.48,13.07 -13.82,15.718 -3.324,1.391 -3.195,1.399 -6.977,-0.472 -3.308,-1.637 -15.257,-13.617 -15.129,-15.164 0.043,-0.489 4.672,-5.231 10.29,-10.532 z"
             style="fill:#ffffff;fill-opacity:1;fill-rule:nonzero;stroke:none"
             id="path984" />
          <path
             d="m 1283.215,1295.32 c 0.566,-0.707 -5.93,-7.945 -25.414,-28.324 l -26.172,-27.375 9.949,-9.504 9.953,-9.504 -1.933,-2.121 c -1.063,-1.164 -3.407,-3.734 -5.207,-5.711 -1.805,-1.972 -3.68,-3.492 -4.172,-3.375 -0.707,0.168 -30.063,27.824 -51.125,48.16 l -3.192,3.079 5.567,5.988 5.562,5.988 6.25,-6.004 c 3.438,-3.305 7.953,-7.613 10.035,-9.574 l 3.786,-3.563 26.109,27.387 26.113,27.391 6.567,-5.992 c 3.609,-3.297 6.906,-6.422 7.324,-6.946 z"
             style="fill:#ffffff;fill-opacity:1;fill-rule:nonzero;stroke:none"
             id="path986" />
          <path
             d="m 1217.586,1352.656 c 3.98,-2.261 22.352,-17.062 29.648,-23.886 l 4.704,-4.399 -10.29,-11.187 -11.394,8.968 c -14.457,11.383 -16.152,12.532 -18.484,12.532 -1.051,0 -2.575,-0.598 -3.383,-1.332 -0.809,-0.731 -11.114,-13.61 -22.899,-28.618 l -21.426,-27.289 -3.89,3.114 c -2.137,1.711 -5.641,4.488 -7.785,6.168 -2.278,1.789 -3.676,3.406 -3.375,3.898 2.543,4.117 47.293,59.98 49.05,61.23 5.876,4.184 13.063,4.481 19.524,0.801 z"
             style="fill:#ffffff;fill-opacity:1;fill-rule:nonzero;stroke:none"
             id="path988" />
          <path
             d="m 350.555,1361.957 c 2.347,-1.187 6.468,-4.227 9.16,-6.75 4.183,-3.922 42.531,-51.801 42.394,-52.934 -0.066,-0.57 -13.886,-11.211 -15.082,-11.613 -0.609,-0.207 -8.257,8.977 -19.746,23.699 -10.312,13.219 -20.066,25.176 -21.676,26.567 -4.363,3.781 -8.769,5.262 -12.406,4.172 -4.062,-1.215 -9.719,-5.274 -12.605,-9.036 -1.953,-2.55 -2.434,-3.878 -2.43,-6.687 0.012,-5.187 2.488,-9.699 12.012,-21.879 4.679,-5.98 13.332,-17.023 19.23,-24.539 l 10.723,-13.664 -7.219,-5.75 c -3.972,-3.16 -7.633,-5.789 -8.137,-5.836 -1.043,-0.098 -37.031,45.445 -40.714,51.527 -5.153,8.5 -6.797,18.118 -4.305,25.176 3.488,9.895 17.43,22.625 31.035,28.344 6.051,2.543 13.789,2.23 19.766,-0.797 z"
             style="fill:#ffffff;fill-opacity:1;fill-rule:nonzero;stroke:none"
             id="path990" />
          <path
             d="m 1130.035,1309.02 c -7.551,0.109 -16.047,3.601 -26.629,10.722 -14.926,10.043 -20.308,20.922 -16.953,34.266 2.742,10.902 14.524,31 24.168,41.222 5.59,5.926 10.031,9.293 14.359,10.883 3.422,1.258 12.227,1.422 16.301,0.305 10.153,-2.781 26.895,-14.195 32.207,-21.953 8.602,-12.567 5.282,-27.274 -11.871,-52.594 -6.101,-9.008 -14.586,-17.473 -20.32,-20.277 -3.606,-1.762 -7.305,-2.633 -11.262,-2.574 z m -5.058,18.906 c 1.062,0 2.082,0.152 3.074,0.453 5.918,1.769 13.976,11.059 23.219,26.75 3.621,6.156 6.136,13.016 6.136,16.75 0,9.644 -14.25,19.375 -23.152,15.812 -5.109,-2.046 -12.535,-10.636 -20.289,-23.476 -10.379,-17.184 -10.34,-25.235 0.156,-32.203 4.145,-2.75 7.676,-4.09 10.856,-4.086 z"
             style="fill:#ffffff;fill-opacity:1;fill-rule:nonzero;stroke:none"
             id="path992" />
          <path
             d="m 419.324,1411.789 c 4.039,-2.059 9.801,-8.656 13.188,-15.101 5.383,-10.243 4.359,-19.411 -3.285,-29.442 -1.938,-2.543 -6.278,-8.141 -9.641,-12.441 -3.363,-4.301 -6.324,-8.766 -6.578,-9.926 -0.621,-2.82 2.32,-8.695 5.246,-10.477 1.375,-0.84 2.941,-1.191 4.125,-0.922 2.109,0.477 10.875,5.786 24.101,14.598 l 8.696,5.793 4.238,-5.504 4.238,-5.508 -5.808,-5.347 c -7.946,-7.309 -17.836,-14.246 -26.879,-18.848 -12.719,-6.469 -20.695,-5.945 -27.871,1.844 -4.141,4.492 -8.328,11.945 -9.684,17.238 -2.262,8.828 0.055,14.477 12.473,30.402 4.601,5.903 8.726,11.52 9.164,12.485 1.219,2.672 0.125,6.535 -2.832,9.992 -4.57,5.34 -6.856,4.563 -27.254,-9.262 -6.996,-4.738 -12.899,-8.617 -13.117,-8.617 -0.219,0 -2.336,2.574 -4.703,5.719 l -4.301,5.715 4.098,3.679 c 10.992,9.875 25.57,19.688 35.027,23.579 5.613,2.304 13.223,2.46 17.359,0.351 z"
             style="fill:#ffffff;fill-opacity:1;fill-rule:nonzero;stroke:none"
             id="path994" />
          <path
             d="m 1056.715,1450.395 c 15.367,-3.887 33.543,-12.344 40.976,-19.071 3.106,-2.812 5.7,-8.75 5.707,-13.07 0.012,-4.109 -2.894,-13.422 -5.656,-18.133 -2.469,-4.211 -6.531,-8.309 -9.98,-10.07 -5.371,-2.739 -10.907,-3.199 -23.391,-1.949 -6.285,0.628 -13.433,1.144 -15.894,1.144 -4.055,0 -4.7,-0.226 -6.942,-2.473 -3.097,-3.093 -4.461,-7.496 -3.168,-10.222 1.024,-2.156 10.199,-7.035 25.555,-13.582 5.012,-2.137 9.359,-4.11 9.66,-4.387 0.961,-0.887 -3.363,-12.836 -4.644,-12.832 -4.512,0.01 -21.977,6.051 -32.282,11.172 -11.375,5.652 -17.176,10.805 -18.801,16.695 -2.613,9.473 5.079,26.664 14.133,31.59 6.356,3.461 10.371,3.805 27.508,2.375 17.391,-1.457 18.313,-1.289 21.188,3.789 2.359,4.168 2.269,8.191 -0.235,10.512 -2.293,2.125 -9.992,5.847 -24.855,12.019 -5.875,2.442 -10.688,4.828 -10.688,5.301 0,0.477 0.86,3.184 1.903,6.016 1.046,2.836 2.058,5.597 2.25,6.144 0.187,0.543 0.933,0.813 1.656,0.602 0.726,-0.215 3.426,-0.922 6,-1.57 z"
             style="fill:#ffffff;fill-opacity:1;fill-rule:nonzero;stroke:none"
             id="path996" />
          <path
             d="m 516.699,1367.094 c -0.261,0 -0.429,0.047 -0.508,0.133 -0.324,0.355 -4.906,11.613 -10.191,25.019 -5.281,13.406 -12.746,32.297 -16.586,41.977 -3.84,9.679 -6.734,17.828 -6.43,18.109 2.121,1.969 37.133,16.207 43.286,17.606 6.39,1.453 14.835,0.953 19.726,-1.176 6.348,-2.758 12.848,-10.379 18.223,-21.375 8.816,-18.035 13.047,-34.75 11.265,-44.492 -2.308,-12.606 -10.847,-19.356 -36.078,-28.508 -14.215,-5.157 -20.851,-7.301 -22.707,-7.293 z m 13.434,20.652 c 1.492,0 14.73,5.281 18.039,7.192 8.785,5.082 9.133,13.996 1.316,33.75 -5.148,13.023 -8.566,18.757 -13.359,22.41 -2.473,1.89 -7.567,2.933 -10.598,2.175 -0.824,-0.207 -5.476,-1.937 -10.336,-3.843 -6.925,-2.715 -8.746,-3.719 -8.402,-4.637 6.469,-17.375 22.703,-57.047 23.34,-57.047 z"
             style="fill:#ffffff;fill-opacity:1;fill-rule:nonzero;stroke:none"
             id="path998" />
          <path
             d="m 632.406,1496.969 c 0,-0.153 0.52,-3.242 1.153,-6.871 0.632,-3.629 0.886,-6.828 0.562,-7.106 -0.324,-0.277 -7.527,-2.062 -16.008,-3.972 -19.523,-4.391 -21.074,-4.907 -22.258,-7.375 -0.812,-1.7 -0.625,-3.403 1.313,-11.954 1.246,-5.484 2.422,-10.129 2.617,-10.32 0.192,-0.191 8.129,1.434 17.637,3.613 9.508,2.18 17.527,3.727 17.824,3.434 0.293,-0.289 1.231,-3.352 2.082,-6.805 l 1.543,-6.273 -1.918,-0.5 c -1.055,-0.27 -8.969,-2.137 -17.586,-4.145 -8.613,-2.007 -15.812,-3.8 -16,-3.988 -0.715,-0.715 3.145,-15.711 4.485,-17.414 0.898,-1.141 2.191,-1.797 3.539,-1.797 1.168,0 9.48,1.688 18.464,3.75 8.989,2.063 16.891,3.75 17.563,3.75 0.883,0 1.762,-1.808 3.187,-6.562 1.086,-3.61 1.735,-6.786 1.45,-7.059 -1.321,-1.254 -35.035,-10.035 -44.051,-11.473 -3.922,-0.625 -9.742,0.688 -13.242,2.989 -5.149,3.386 -6.133,6.16 -13.383,37.726 -3.695,16.102 -6.723,30.766 -6.723,32.59 0,6.723 3.035,11.848 8.906,15.043 5.555,3.02 48.844,12.523 48.844,10.719 z"
             style="fill:#ffffff;fill-opacity:1;fill-rule:nonzero;stroke:none"
             id="path1000" />
          <path
             d="m 938.184,1395.996 c -0.899,0 -6.364,1.379 -12.145,3.059 -7.297,2.125 -11.078,3.621 -12.383,4.89 l -1.875,1.836 -0.48,26.043 c -0.262,14.328 -0.711,35.391 -0.992,46.805 l -0.512,20.758 6.617,-1.84 c 3.641,-1.012 8.043,-2.203 9.789,-2.652 l 3.168,-0.817 0.207,-12.769 0.203,-12.77 15,-4.281 c 10.895,-3.113 15.223,-4.059 15.817,-3.461 0.574,0.582 11.007,17.473 12.64,20.469 0.219,0.398 19.168,-5.289 19.168,-5.758 0,-1.176 -48.871,-76.231 -50.672,-77.824 -1.05,-0.926 -2.648,-1.688 -3.55,-1.688 z m -8.129,17.613 c 0.172,-0.011 0.371,0.012 0.601,0.012 1.313,0 3.477,3.086 11.328,16.125 6.098,10.133 9.399,16.309 8.879,16.613 -0.91,0.532 -19.875,5.887 -20.851,5.887 -0.332,0 -0.68,-6.074 -0.77,-13.5 -0.289,-23.348 -0.394,-25.07 0.813,-25.137 z"
             style="fill:#ffffff;fill-opacity:1;fill-rule:nonzero;stroke:none"
             id="path1002" />
          <path
             d="m 836.031,1507.449 c 4.125,-0.523 7.449,-1.261 7.387,-1.64 -1.273,-7.731 -4.805,-39.516 -4.43,-39.891 0.739,-0.738 31.45,-4.598 32.004,-4.023 0.254,0.261 1.563,9.421 2.906,20.351 1.344,10.934 2.485,19.926 2.54,19.988 0.05,0.063 4.484,-0.449 9.843,-1.136 7.625,-0.981 9.739,-1.496 9.684,-2.364 -0.149,-2.457 -11.133,-89.632 -11.328,-89.914 -0.262,-0.379 -18.969,1.914 -19.43,2.379 -0.187,0.184 0.66,8.059 1.879,17.496 1.219,9.438 2.144,17.231 2.055,17.317 -0.407,0.41 -32.125,4.093 -32.45,3.769 -0.199,-0.199 -1.324,-7.847 -2.496,-16.996 -1.172,-9.144 -2.324,-16.824 -2.562,-17.062 -0.516,-0.516 -18.309,1.609 -18.961,2.261 -0.246,0.246 0.105,4.762 0.777,10.043 3.328,26.063 10.207,80.528 10.207,80.809 0,0.176 1.098,0.148 2.438,-0.059 1.344,-0.207 5.812,-0.804 9.937,-1.328 z"
             style="fill:#ffffff;fill-opacity:1;fill-rule:nonzero;stroke:none"
             id="path1004" />
          <path
             d="m 725.664,1493.684 c 3.711,-47.782 5.746,-75.426 5.57,-75.571 -0.394,-0.316 -18.961,-1.664 -19.418,-1.41 -0.254,0.145 -0.695,3.731 -0.98,7.965 -0.285,4.238 -1.172,16.312 -1.973,26.828 -0.801,10.52 -1.961,26.047 -2.578,34.5 -0.613,8.457 -1.316,16.945 -1.558,18.863 l -0.438,3.485 8.121,0.508 c 4.469,0.277 8.461,0.621 8.871,0.765 3.043,1.063 3.071,0.957 4.383,-15.933 z"
             style="fill:#ffffff;fill-opacity:1;fill-rule:nonzero;stroke:none"
             id="path1006" />
          <path
             d="m 794.406,1509.895 c 5.985,-0.442 11.149,-0.973 11.485,-1.172 0.55,-0.336 0.382,-3.379 -0.661,-11.891 l -0.371,-3.043 -18.074,0.043 -18.078,0.039 -1.383,-1.875 c -1.265,-1.715 -1.457,-4.851 -2.265,-37.125 -0.481,-19.387 -1.079,-35.453 -1.329,-35.699 -0.246,-0.25 -4.781,-0.293 -10.074,-0.094 l -9.629,0.356 0.5,16.218 c 0.274,8.922 0.75,26.344 1.059,38.719 0.519,20.938 0.672,22.762 2.219,26.223 0.914,2.051 2.238,4.363 2.945,5.144 1.883,2.082 6.676,4.34 10.598,4.989 3.984,0.66 17.523,0.32 33.058,-0.832 z"
             style="fill:#ffffff;fill-opacity:1;fill-rule:nonzero;stroke:none"
             id="path1008" />
        </g>
      </g>
      <g
         id="g746"
         transform="matrix(0.16656529,0,0,0.16656529,110.20753,81.585041)">
        <path
           d="M 152.941,139.188 H 388.644 V 271.649 H 152.941 Z"
           style="fill:#cb9166;fill-opacity:1;fill-rule:nonzero;stroke:none"
           id="path748" />
        <path
           d="M 0,139.188 H 152.941 V 271.649 H 0 Z"
           style="fill:#87decd;fill-opacity:1;fill-rule:nonzero;stroke:none"
           id="path750" />
        <path
           d="M 152.941,0 H 388.644 V 139.188 H 152.941 Z"
           style="fill:#87decd;fill-opacity:1;fill-rule:nonzero;stroke:none"
           id="path752" />
        <path
           d="M 0,0 H 152.941 V 139.188 H 0 Z"
           style="fill:#00aa44;fill-opacity:1;fill-rule:nonzero;stroke:none"
           id="path754" />
        <text
           xml:space="preserve"
           transform="translate(171.04723,87.339536)"
           style="font-variant:normal;font-weight:900;font-size:48.8245px;font-family:'Inter Black';-inkscape-font-specification:Inter-Black;writing-mode:lr-tb;fill:#ffffff;fill-opacity:1;fill-rule:nonzero;stroke:none"
           id="text758"><tspan
             x="0 37.728024 83.223579 115.75013 129.9675 165.26816"
             y="0"
             sodipodi:role="line"
             id="tspan756">GMSINT</tspan></text>
        <text
           xml:space="preserve"
           transform="translate(8.208199,18.784632)"
           style="font-variant:normal;font-weight:normal;font-size:13.2724px;font-family:Inter;-inkscape-font-specification:Inter-Regular;writing-mode:lr-tb;fill:#ffffff;fill-opacity:1;fill-rule:nonzero;stroke:none"
           id="text762"><tspan
             x="0 9.8600407 14.799487 22.510302 30.598175 38.516373 42.249237 50.48793"
             y="0"
             sodipodi:role="line"
             id="tspan760">Grupo de</tspan></text>
        <text
           xml:space="preserve"
           transform="translate(23.161352,63.802195)"
           style="font-variant:normal;font-weight:500;font-size:24px;font-family:'Inter Medium';-inkscape-font-specification:Inter-Medium;writing-mode:lr-tb;fill:#ffffff;fill-opacity:1;fill-rule:nonzero;stroke:none"
           id="text770"><tspan
             x="0 21.545464 35.207401 43.986702 58.083298 67.304893 73.279327 86.941261 92.915695"
             y="0"
             sodipodi:role="line"
             id="tspan764">Materiais</tspan><tspan
             x="0.79264593 16.235834 22.210268 35.071068 43.850368 57.946964 79.15152 92.813454"
             y="29.446932"
             sodipodi:role="line"
             id="tspan766">Sistemas</tspan><tspan
             x="179.90268 186.37143 200.70667 209.48596 223.58257 229.55699 235.53143 250.34393 264.44052 278.77576 287.57907 301.67566"
             y="148.10214"
             sodipodi:role="line"
             id="tspan768">Inteligentes</tspan></text>
        <text
           xml:space="preserve"
           transform="translate(117.89067,174.41107)"
           style="font-variant:normal;font-weight:800;font-size:96.9117px;font-family:'Inter Extra Bold';-inkscape-font-specification:Inter-ExtraBold;writing-mode:lr-tb;fill:#ffffff;fill-opacity:1;fill-rule:nonzero;stroke:none"
           id="text774"><tspan
             x="0"
             y="0"
             id="tspan772">&amp;</tspan></text>
        <text
           xml:space="preserve"
           transform="translate(6.347581,263.05854)"
           style="font-variant:normal;font-weight:200;font-size:12px;font-family:'Inter Extra Light';-inkscape-font-specification:Inter-ExtraLight;writing-mode:lr-tb;fill:#ffffff;fill-opacity:1;fill-rule:nonzero;stroke:none"
           id="text782"><tspan
             x="0 10.159082 17.181805 24.068161 26.79117 30.959225 37.981945 42.072853 48.656654 58.815735 65.757492 72.643852 76.823898 83.846626 87.221619 94.487236 101.07104 104.44604 107.16904 114.0554 118.22346 125.16521 132.27316 136.36407 139.08708 146.35269 152.93649 160.20212 167.14388 170.51888 177.46063 183.49471 187.73476 191.82567 198.69498 202.93503 209.80435 213.89525 220.47905"
             y="0"
             sodipodi:role="line"
             id="tspan776">monitoramento da integridade estrutural</tspan><tspan
             x="0.3622233 7.3039789 13.338065 17.578117 21.669024 28.538336 32.778389 39.647701 43.738609 50.322411 56.356495 59.731491 62.454502 69.340858 73.508911 80.450668 83.126801 85.849808 92.957756 99.899513 106.78587 110.96593 117.90768"
             y="-18.712532"
             sodipodi:role="line"
             id="tspan778">estruturas inteligentes</tspan><tspan
             x="0.3622233 7.0142064 14.036928 20.923286 25.16334 29.050245 36.072968 38.7491 45.690857 49.065853 55.649654 59.889709 62.612717 68.781799"
             y="-36.199913"
             sodipodi:role="line"
             id="tspan780">controle ativo</tspan></text>
        <g
           id="g784">
          <g
             id="g786" />
          <g
             id="g800">
            <g
               clip-path="url(#clipPath790)"
               opacity="0.15"
               id="g798">
              <g
                 id="g796">
                <g
                   id="g794">
                  <path
                     d="m 187.812,103.09 c 0,39.598 -31.449,71.695 -70.242,71.695 -38.793,0 -70.242,-32.097 -70.242,-71.695 0,-39.594 31.449,-71.692 70.242,-71.692 38.793,0 70.242,32.098 70.242,71.692 z"
                     style="fill:none;stroke:#ffffff;stroke-width:0.999998;stroke-linecap:round;stroke-linejoin:round;stroke-miterlimit:4;stroke-dasharray:none;stroke-opacity:1"
                     id="path792" />
                </g>
              </g>
            </g>
          </g>
        </g>
        <g
           id="g802">
          <g
             id="g804" />
          <g
             id="g818">
            <g
               clip-path="url(#clipPath808)"
               opacity="0.15"
               id="g816">
              <g
                 id="g814">
                <g
                   id="g812">
                  <path
                     d="m 258.555,175.285 c 0,39.594 -31.45,71.692 -70.243,71.692 -38.792,0 -70.242,-32.098 -70.242,-71.692 0,-39.597 31.45,-71.695 70.242,-71.695 38.793,0 70.243,32.098 70.243,71.695 z"
                     style="fill:none;stroke:#ffffff;stroke-width:0.999998;stroke-linecap:round;stroke-linejoin:round;stroke-miterlimit:4;stroke-dasharray:none;stroke-opacity:1"
                     id="path810" />
                </g>
              </g>
            </g>
          </g>
        </g>
      </g>
    </g>
  </g>
</svg>
