<?xml version="1.0" encoding="utf-8" standalone="no"?>
<!DOCTYPE svg PUBLIC "-//W3C//DTD SVG 1.1//EN"
  "http://www.w3.org/Graphics/SVG/1.1/DTD/svg11.dtd">
<svg xmlns:xlink="http://www.w3.org/1999/xlink" width="460.8pt" height="345.6pt" viewBox="0 0 460.8 345.6" xmlns="http://www.w3.org/2000/svg" version="1.1">
 <metadata>
  <rdf:RDF xmlns:dc="http://purl.org/dc/elements/1.1/" xmlns:cc="http://creativecommons.org/ns#" xmlns:rdf="http://www.w3.org/1999/02/22-rdf-syntax-ns#">
   <cc:Work>
    <dc:type rdf:resource="http://purl.org/dc/dcmitype/StillImage"/>
    <dc:date>2023-04-26T10:48:09.674774</dc:date>
    <dc:format>image/svg+xml</dc:format>
    <dc:creator>
     <cc:Agent>
      <dc:title>Matplotlib v3.7.1, https://matplotlib.org/</dc:title>
     </cc:Agent>
    </dc:creator>
   </cc:Work>
  </rdf:RDF>
 </metadata>
 <defs>
  <style type="text/css">*{stroke-linejoin: round; stroke-linecap: butt}</style>
 </defs>
 <g id="figure_1">
  <g id="patch_1">
   <path d="M 0 345.6 
L 460.8 345.6 
L 460.8 0 
L 0 0 
z
" style="fill: #ffffff"/>
  </g>
  <g id="axes_1">
   <g id="patch_2">
    <path d="M 57.6 307.584 
L 414.72 307.584 
L 414.72 41.472 
L 57.6 41.472 
z
" style="fill: #ffffff"/>
   </g>
   <g id="matplotlib.axis_1">
    <g id="xtick_1">
     <g id="line2d_1">
      <defs>
       <path id="maca4395691" d="M 0 0 
L 0 3.5 
" style="stroke: #000000; stroke-width: 0.8"/>
      </defs>
      <g>
       <use xlink:href="#maca4395691" x="73.832727" y="307.584" style="stroke: #000000; stroke-width: 0.8"/>
      </g>
     </g>
     <g id="text_1">
      <!-- 0 -->
      <g transform="translate(70.651477 322.182437) scale(0.1 -0.1)">
       <defs>
        <path id="DejaVuSans-30" d="M 2034 4250 
Q 1547 4250 1301 3770 
Q 1056 3291 1056 2328 
Q 1056 1369 1301 889 
Q 1547 409 2034 409 
Q 2525 409 2770 889 
Q 3016 1369 3016 2328 
Q 3016 3291 2770 3770 
Q 2525 4250 2034 4250 
z
M 2034 4750 
Q 2819 4750 3233 4129 
Q 3647 3509 3647 2328 
Q 3647 1150 3233 529 
Q 2819 -91 2034 -91 
Q 1250 -91 836 529 
Q 422 1150 422 2328 
Q 422 3509 836 4129 
Q 1250 4750 2034 4750 
z
" transform="scale(0.015625)"/>
       </defs>
       <use xlink:href="#DejaVuSans-30"/>
      </g>
     </g>
    </g>
    <g id="xtick_2">
     <g id="line2d_2">
      <g>
       <use xlink:href="#maca4395691" x="138.763636" y="307.584" style="stroke: #000000; stroke-width: 0.8"/>
      </g>
     </g>
     <g id="text_2">
      <!-- 10 -->
      <g transform="translate(132.401136 322.182437) scale(0.1 -0.1)">
       <defs>
        <path id="DejaVuSans-31" d="M 794 531 
L 1825 531 
L 1825 4091 
L 703 3866 
L 703 4441 
L 1819 4666 
L 2450 4666 
L 2450 531 
L 3481 531 
L 3481 0 
L 794 0 
L 794 531 
z
" transform="scale(0.015625)"/>
       </defs>
       <use xlink:href="#DejaVuSans-31"/>
       <use xlink:href="#DejaVuSans-30" x="63.623047"/>
      </g>
     </g>
    </g>
    <g id="xtick_3">
     <g id="line2d_3">
      <g>
       <use xlink:href="#maca4395691" x="203.694545" y="307.584" style="stroke: #000000; stroke-width: 0.8"/>
      </g>
     </g>
     <g id="text_3">
      <!-- 20 -->
      <g transform="translate(197.332045 322.182437) scale(0.1 -0.1)">
       <defs>
        <path id="DejaVuSans-32" d="M 1228 531 
L 3431 531 
L 3431 0 
L 469 0 
L 469 531 
Q 828 903 1448 1529 
Q 2069 2156 2228 2338 
Q 2531 2678 2651 2914 
Q 2772 3150 2772 3378 
Q 2772 3750 2511 3984 
Q 2250 4219 1831 4219 
Q 1534 4219 1204 4116 
Q 875 4013 500 3803 
L 500 4441 
Q 881 4594 1212 4672 
Q 1544 4750 1819 4750 
Q 2544 4750 2975 4387 
Q 3406 4025 3406 3419 
Q 3406 3131 3298 2873 
Q 3191 2616 2906 2266 
Q 2828 2175 2409 1742 
Q 1991 1309 1228 531 
z
" transform="scale(0.015625)"/>
       </defs>
       <use xlink:href="#DejaVuSans-32"/>
       <use xlink:href="#DejaVuSans-30" x="63.623047"/>
      </g>
     </g>
    </g>
    <g id="xtick_4">
     <g id="line2d_4">
      <g>
       <use xlink:href="#maca4395691" x="268.625455" y="307.584" style="stroke: #000000; stroke-width: 0.8"/>
      </g>
     </g>
     <g id="text_4">
      <!-- 30 -->
      <g transform="translate(262.262955 322.182437) scale(0.1 -0.1)">
       <defs>
        <path id="DejaVuSans-33" d="M 2597 2516 
Q 3050 2419 3304 2112 
Q 3559 1806 3559 1356 
Q 3559 666 3084 287 
Q 2609 -91 1734 -91 
Q 1441 -91 1130 -33 
Q 819 25 488 141 
L 488 750 
Q 750 597 1062 519 
Q 1375 441 1716 441 
Q 2309 441 2620 675 
Q 2931 909 2931 1356 
Q 2931 1769 2642 2001 
Q 2353 2234 1838 2234 
L 1294 2234 
L 1294 2753 
L 1863 2753 
Q 2328 2753 2575 2939 
Q 2822 3125 2822 3475 
Q 2822 3834 2567 4026 
Q 2313 4219 1838 4219 
Q 1578 4219 1281 4162 
Q 984 4106 628 3988 
L 628 4550 
Q 988 4650 1302 4700 
Q 1616 4750 1894 4750 
Q 2613 4750 3031 4423 
Q 3450 4097 3450 3541 
Q 3450 3153 3228 2886 
Q 3006 2619 2597 2516 
z
" transform="scale(0.015625)"/>
       </defs>
       <use xlink:href="#DejaVuSans-33"/>
       <use xlink:href="#DejaVuSans-30" x="63.623047"/>
      </g>
     </g>
    </g>
    <g id="xtick_5">
     <g id="line2d_5">
      <g>
       <use xlink:href="#maca4395691" x="333.556364" y="307.584" style="stroke: #000000; stroke-width: 0.8"/>
      </g>
     </g>
     <g id="text_5">
      <!-- 40 -->
      <g transform="translate(327.193864 322.182437) scale(0.1 -0.1)">
       <defs>
        <path id="DejaVuSans-34" d="M 2419 4116 
L 825 1625 
L 2419 1625 
L 2419 4116 
z
M 2253 4666 
L 3047 4666 
L 3047 1625 
L 3713 1625 
L 3713 1100 
L 3047 1100 
L 3047 0 
L 2419 0 
L 2419 1100 
L 313 1100 
L 313 1709 
L 2253 4666 
z
" transform="scale(0.015625)"/>
       </defs>
       <use xlink:href="#DejaVuSans-34"/>
       <use xlink:href="#DejaVuSans-30" x="63.623047"/>
      </g>
     </g>
    </g>
    <g id="xtick_6">
     <g id="line2d_6">
      <g>
       <use xlink:href="#maca4395691" x="398.487273" y="307.584" style="stroke: #000000; stroke-width: 0.8"/>
      </g>
     </g>
     <g id="text_6">
      <!-- 50 -->
      <g transform="translate(392.124773 322.182437) scale(0.1 -0.1)">
       <defs>
        <path id="DejaVuSans-35" d="M 691 4666 
L 3169 4666 
L 3169 4134 
L 1269 4134 
L 1269 2991 
Q 1406 3038 1543 3061 
Q 1681 3084 1819 3084 
Q 2600 3084 3056 2656 
Q 3513 2228 3513 1497 
Q 3513 744 3044 326 
Q 2575 -91 1722 -91 
Q 1428 -91 1123 -41 
Q 819 9 494 109 
L 494 744 
Q 775 591 1075 516 
Q 1375 441 1709 441 
Q 2250 441 2565 725 
Q 2881 1009 2881 1497 
Q 2881 1984 2565 2268 
Q 2250 2553 1709 2553 
Q 1456 2553 1204 2497 
Q 953 2441 691 2322 
L 691 4666 
z
" transform="scale(0.015625)"/>
       </defs>
       <use xlink:href="#DejaVuSans-35"/>
       <use xlink:href="#DejaVuSans-30" x="63.623047"/>
      </g>
     </g>
    </g>
    <g id="text_7">
     <!-- Tempo -->
     <g transform="translate(219.775625 335.860562) scale(0.1 -0.1)">
      <defs>
       <path id="DejaVuSans-54" d="M -19 4666 
L 3928 4666 
L 3928 4134 
L 2272 4134 
L 2272 0 
L 1638 0 
L 1638 4134 
L -19 4134 
L -19 4666 
z
" transform="scale(0.015625)"/>
       <path id="DejaVuSans-65" d="M 3597 1894 
L 3597 1613 
L 953 1613 
Q 991 1019 1311 708 
Q 1631 397 2203 397 
Q 2534 397 2845 478 
Q 3156 559 3463 722 
L 3463 178 
Q 3153 47 2828 -22 
Q 2503 -91 2169 -91 
Q 1331 -91 842 396 
Q 353 884 353 1716 
Q 353 2575 817 3079 
Q 1281 3584 2069 3584 
Q 2775 3584 3186 3129 
Q 3597 2675 3597 1894 
z
M 3022 2063 
Q 3016 2534 2758 2815 
Q 2500 3097 2075 3097 
Q 1594 3097 1305 2825 
Q 1016 2553 972 2059 
L 3022 2063 
z
" transform="scale(0.015625)"/>
       <path id="DejaVuSans-6d" d="M 3328 2828 
Q 3544 3216 3844 3400 
Q 4144 3584 4550 3584 
Q 5097 3584 5394 3201 
Q 5691 2819 5691 2113 
L 5691 0 
L 5113 0 
L 5113 2094 
Q 5113 2597 4934 2840 
Q 4756 3084 4391 3084 
Q 3944 3084 3684 2787 
Q 3425 2491 3425 1978 
L 3425 0 
L 2847 0 
L 2847 2094 
Q 2847 2600 2669 2842 
Q 2491 3084 2119 3084 
Q 1678 3084 1418 2786 
Q 1159 2488 1159 1978 
L 1159 0 
L 581 0 
L 581 3500 
L 1159 3500 
L 1159 2956 
Q 1356 3278 1631 3431 
Q 1906 3584 2284 3584 
Q 2666 3584 2933 3390 
Q 3200 3197 3328 2828 
z
" transform="scale(0.015625)"/>
       <path id="DejaVuSans-70" d="M 1159 525 
L 1159 -1331 
L 581 -1331 
L 581 3500 
L 1159 3500 
L 1159 2969 
Q 1341 3281 1617 3432 
Q 1894 3584 2278 3584 
Q 2916 3584 3314 3078 
Q 3713 2572 3713 1747 
Q 3713 922 3314 415 
Q 2916 -91 2278 -91 
Q 1894 -91 1617 61 
Q 1341 213 1159 525 
z
M 3116 1747 
Q 3116 2381 2855 2742 
Q 2594 3103 2138 3103 
Q 1681 3103 1420 2742 
Q 1159 2381 1159 1747 
Q 1159 1113 1420 752 
Q 1681 391 2138 391 
Q 2594 391 2855 752 
Q 3116 1113 3116 1747 
z
" transform="scale(0.015625)"/>
       <path id="DejaVuSans-6f" d="M 1959 3097 
Q 1497 3097 1228 2736 
Q 959 2375 959 1747 
Q 959 1119 1226 758 
Q 1494 397 1959 397 
Q 2419 397 2687 759 
Q 2956 1122 2956 1747 
Q 2956 2369 2687 2733 
Q 2419 3097 1959 3097 
z
M 1959 3584 
Q 2709 3584 3137 3096 
Q 3566 2609 3566 1747 
Q 3566 888 3137 398 
Q 2709 -91 1959 -91 
Q 1206 -91 779 398 
Q 353 888 353 1747 
Q 353 2609 779 3096 
Q 1206 3584 1959 3584 
z
" transform="scale(0.015625)"/>
      </defs>
      <use xlink:href="#DejaVuSans-54"/>
      <use xlink:href="#DejaVuSans-65" x="44.083984"/>
      <use xlink:href="#DejaVuSans-6d" x="105.607422"/>
      <use xlink:href="#DejaVuSans-70" x="203.019531"/>
      <use xlink:href="#DejaVuSans-6f" x="266.496094"/>
     </g>
    </g>
   </g>
   <g id="matplotlib.axis_2">
    <g id="ytick_1">
     <g id="line2d_7">
      <defs>
       <path id="m309e4fb3e5" d="M 0 0 
L -3.5 0 
" style="stroke: #000000; stroke-width: 0.8"/>
      </defs>
      <g>
       <use xlink:href="#m309e4fb3e5" x="57.6" y="304.848486" style="stroke: #000000; stroke-width: 0.8"/>
      </g>
     </g>
     <g id="text_8">
      <!-- −0.6 -->
      <g transform="translate(26.317187 308.647705) scale(0.1 -0.1)">
       <defs>
        <path id="DejaVuSans-2212" d="M 678 2272 
L 4684 2272 
L 4684 1741 
L 678 1741 
L 678 2272 
z
" transform="scale(0.015625)"/>
        <path id="DejaVuSans-2e" d="M 684 794 
L 1344 794 
L 1344 0 
L 684 0 
L 684 794 
z
" transform="scale(0.015625)"/>
        <path id="DejaVuSans-36" d="M 2113 2584 
Q 1688 2584 1439 2293 
Q 1191 2003 1191 1497 
Q 1191 994 1439 701 
Q 1688 409 2113 409 
Q 2538 409 2786 701 
Q 3034 994 3034 1497 
Q 3034 2003 2786 2293 
Q 2538 2584 2113 2584 
z
M 3366 4563 
L 3366 3988 
Q 3128 4100 2886 4159 
Q 2644 4219 2406 4219 
Q 1781 4219 1451 3797 
Q 1122 3375 1075 2522 
Q 1259 2794 1537 2939 
Q 1816 3084 2150 3084 
Q 2853 3084 3261 2657 
Q 3669 2231 3669 1497 
Q 3669 778 3244 343 
Q 2819 -91 2113 -91 
Q 1303 -91 875 529 
Q 447 1150 447 2328 
Q 447 3434 972 4092 
Q 1497 4750 2381 4750 
Q 2619 4750 2861 4703 
Q 3103 4656 3366 4563 
z
" transform="scale(0.015625)"/>
       </defs>
       <use xlink:href="#DejaVuSans-2212"/>
       <use xlink:href="#DejaVuSans-30" x="83.789062"/>
       <use xlink:href="#DejaVuSans-2e" x="147.412109"/>
       <use xlink:href="#DejaVuSans-36" x="179.199219"/>
      </g>
     </g>
    </g>
    <g id="ytick_2">
     <g id="line2d_8">
      <g>
       <use xlink:href="#m309e4fb3e5" x="57.6" y="261.291082" style="stroke: #000000; stroke-width: 0.8"/>
      </g>
     </g>
     <g id="text_9">
      <!-- −0.4 -->
      <g transform="translate(26.317187 265.090301) scale(0.1 -0.1)">
       <use xlink:href="#DejaVuSans-2212"/>
       <use xlink:href="#DejaVuSans-30" x="83.789062"/>
       <use xlink:href="#DejaVuSans-2e" x="147.412109"/>
       <use xlink:href="#DejaVuSans-34" x="179.199219"/>
      </g>
     </g>
    </g>
    <g id="ytick_3">
     <g id="line2d_9">
      <g>
       <use xlink:href="#m309e4fb3e5" x="57.6" y="217.733678" style="stroke: #000000; stroke-width: 0.8"/>
      </g>
     </g>
     <g id="text_10">
      <!-- −0.2 -->
      <g transform="translate(26.317187 221.532897) scale(0.1 -0.1)">
       <use xlink:href="#DejaVuSans-2212"/>
       <use xlink:href="#DejaVuSans-30" x="83.789062"/>
       <use xlink:href="#DejaVuSans-2e" x="147.412109"/>
       <use xlink:href="#DejaVuSans-32" x="179.199219"/>
      </g>
     </g>
    </g>
    <g id="ytick_4">
     <g id="line2d_10">
      <g>
       <use xlink:href="#m309e4fb3e5" x="57.6" y="174.176274" style="stroke: #000000; stroke-width: 0.8"/>
      </g>
     </g>
     <g id="text_11">
      <!-- 0.0 -->
      <g transform="translate(34.696875 177.975493) scale(0.1 -0.1)">
       <use xlink:href="#DejaVuSans-30"/>
       <use xlink:href="#DejaVuSans-2e" x="63.623047"/>
       <use xlink:href="#DejaVuSans-30" x="95.410156"/>
      </g>
     </g>
    </g>
    <g id="ytick_5">
     <g id="line2d_11">
      <g>
       <use xlink:href="#m309e4fb3e5" x="57.6" y="130.61887" style="stroke: #000000; stroke-width: 0.8"/>
      </g>
     </g>
     <g id="text_12">
      <!-- 0.2 -->
      <g transform="translate(34.696875 134.418089) scale(0.1 -0.1)">
       <use xlink:href="#DejaVuSans-30"/>
       <use xlink:href="#DejaVuSans-2e" x="63.623047"/>
       <use xlink:href="#DejaVuSans-32" x="95.410156"/>
      </g>
     </g>
    </g>
    <g id="ytick_6">
     <g id="line2d_12">
      <g>
       <use xlink:href="#m309e4fb3e5" x="57.6" y="87.061466" style="stroke: #000000; stroke-width: 0.8"/>
      </g>
     </g>
     <g id="text_13">
      <!-- 0.4 -->
      <g transform="translate(34.696875 90.860685) scale(0.1 -0.1)">
       <use xlink:href="#DejaVuSans-30"/>
       <use xlink:href="#DejaVuSans-2e" x="63.623047"/>
       <use xlink:href="#DejaVuSans-34" x="95.410156"/>
      </g>
     </g>
    </g>
    <g id="ytick_7">
     <g id="line2d_13">
      <g>
       <use xlink:href="#m309e4fb3e5" x="57.6" y="43.504062" style="stroke: #000000; stroke-width: 0.8"/>
      </g>
     </g>
     <g id="text_14">
      <!-- 0.6 -->
      <g transform="translate(34.696875 47.303281) scale(0.1 -0.1)">
       <use xlink:href="#DejaVuSans-30"/>
       <use xlink:href="#DejaVuSans-2e" x="63.623047"/>
       <use xlink:href="#DejaVuSans-36" x="95.410156"/>
      </g>
     </g>
    </g>
    <g id="text_15">
     <!-- x -->
     <g transform="translate(20.2375 177.487375) rotate(-90) scale(0.1 -0.1)">
      <defs>
       <path id="DejaVuSans-78" d="M 3513 3500 
L 2247 1797 
L 3578 0 
L 2900 0 
L 1881 1375 
L 863 0 
L 184 0 
L 1544 1831 
L 300 3500 
L 978 3500 
L 1906 2253 
L 2834 3500 
L 3513 3500 
z
" transform="scale(0.015625)"/>
      </defs>
      <use xlink:href="#DejaVuSans-78"/>
     </g>
    </g>
   </g>
   <g id="line2d_14">
    <path d="M 73.832727 174.176274 
L 74.663843 174.070695 
L 75.105373 173.760105 
L 75.533917 173.167332 
L 76.00142 172.117032 
L 76.533853 170.329937 
L 77.144204 167.43141 
L 77.858444 162.866812 
L 78.767476 155.484267 
L 82.208815 125.91467 
L 83.052916 121.245317 
L 83.689239 118.773434 
L 84.208687 117.477601 
L 84.637231 116.913533 
L 84.948899 116.795928 
L 85.234595 116.904821 
L 85.533277 117.23368 
L 85.948835 118.054737 
L 86.481268 119.692495 
L 87.130577 122.501948 
L 87.974679 127.312863 
L 89.000588 134.554281 
L 90.532957 147.231664 
L 97.077993 203.337956 
L 100.077801 226.107589 
L 104.311296 255.828984 
L 106.415057 268.861359 
L 108.129233 277.999702 
L 109.46681 283.958355 
L 110.648553 288.255293 
L 111.726406 291.32609 
L 112.570508 293.148967 
L 113.375651 294.401243 
L 114.180794 295.178742 
L 114.778159 295.450976 
L 115.427468 295.450976 
L 116.141708 295.100339 
L 116.920879 294.303239 
L 117.713036 293.057497 
L 118.531165 291.317379 
L 119.362281 289.089417 
L 120.492079 285.332591 
L 121.647849 280.65017 
L 123.167232 273.256301 
L 124.426892 266.121598 
L 126.089123 255.415188 
L 127.972119 241.696784 
L 130.205743 223.605216 
L 133.374371 195.548368 
L 141.737472 119.988685 
L 144.204847 100.629597 
L 146.035898 87.939148 
L 147.59424 78.476302 
L 148.983761 71.193504 
L 150.503145 64.58149 
L 151.671901 60.508872 
L 152.801699 57.446787 
L 153.892538 55.327719 
L 154.710668 54.288875 
L 155.334004 53.816277 
L 155.970327 53.618091 
L 156.645609 53.726985 
L 157.126097 54.001396 
L 157.645545 54.482705 
L 158.424716 55.565107 
L 159.229859 57.130996 
L 160.035002 59.145526 
L 161.138828 62.625762 
L 162.242653 66.911811 
L 163.398423 72.227992 
L 164.606138 78.643998 
L 166.203439 88.385611 
L 167.982545 100.755914 
L 170.034362 116.713169 
L 172.722502 139.718012 
L 176.488495 174.182524 
L 181.319354 217.986311 
L 184.124369 241.028178 
L 186.137228 255.702667 
L 188.111127 268.194931 
L 189.513635 275.769563 
L 190.799267 281.673769 
L 192.006982 286.262542 
L 193.149766 289.71011 
L 194.032826 291.76602 
L 194.876928 293.220837 
L 195.72103 294.172566 
L 196.344367 294.551516 
L 196.980689 294.64952 
L 197.448192 294.538449 
L 197.928681 294.261859 
L 198.435142 293.791439 
L 198.967575 293.103232 
L 199.759732 291.707217 
L 200.850572 289.069817 
L 201.928425 285.667983 
L 203.045236 281.331844 
L 204.201007 276.013485 
L 205.72039 267.800736 
L 207.343663 257.614837 
L 209.161728 244.667399 
L 211.304448 227.658233 
L 214.213353 202.333958 
L 224.18674 113.015145 
L 226.589184 94.95189 
L 228.277388 83.840396 
L 230.043508 73.850505 
L 231.60185 66.569885 
L 232.796579 62.031204 
L 233.731584 59.136814 
L 234.835409 56.490702 
L 235.679511 55.038062 
L 236.315834 54.275808 
L 236.926185 53.814099 
L 237.562508 53.615913 
L 238.237789 53.722629 
L 238.990988 54.225717 
L 239.757172 55.151312 
L 240.549329 56.542971 
L 241.354473 58.407228 
L 242.185588 60.796351 
L 243.276428 64.633759 
L 244.717894 70.886424 
L 246.198319 78.628752 
L 247.795619 88.370366 
L 249.574726 100.738491 
L 251.639529 116.800283 
L 253.717318 134.421431 
L 256.769071 162.008078 
L 263.417996 222.309383 
L 265.703564 240.908395 
L 267.742394 255.774537 
L 269.391639 266.345919 
L 270.833105 274.373548 
L 272.14471 280.610969 
L 273.625135 286.340945 
L 274.741946 289.703577 
L 275.625007 291.759486 
L 276.482095 293.236082 
L 277.31321 294.170389 
L 277.936547 294.549338 
L 278.57287 294.64952 
L 279.040372 294.540626 
L 279.780585 294.04625 
L 280.559756 293.10541 
L 281.351913 291.711573 
L 282.157056 289.845138 
L 283.260881 286.565266 
L 284.364707 282.475226 
L 285.507491 277.416033 
L 287.000902 269.606191 
L 288.598202 259.860221 
L 290.364323 247.583567 
L 292.429126 231.528308 
L 294.519901 213.798267 
L 297.558668 186.328572 
L 304.051759 127.352065 
L 306.506147 107.315659 
L 308.531991 92.543165 
L 310.505891 80.05308 
L 311.908399 72.480625 
L 313.453754 65.513618 
L 314.635497 61.21668 
L 315.765295 57.982543 
L 316.86912 55.671823 
L 317.687249 54.50884 
L 318.544337 53.801032 
L 319.154688 53.615913 
L 319.842956 53.726985 
L 320.583168 54.223539 
L 321.349353 55.146956 
L 322.14151 56.538615 
L 322.959639 58.433362 
L 324.050479 61.674033 
L 325.154304 65.759717 
L 326.297088 70.812376 
L 327.803485 78.689733 
L 329.076131 86.347124 
L 330.790307 97.979129 
L 332.790179 113.208976 
L 335.283526 134.173154 
L 338.361251 161.985863 
L 345.010176 222.289782 
L 347.776233 244.556327 
L 349.685201 258.122281 
L 351.59417 269.876246 
L 352.970705 277.082819 
L 354.243351 282.721325 
L 355.425094 287.022619 
L 356.347113 289.731889 
L 357.217187 291.75513 
L 358.074275 293.231726 
L 358.710598 293.993981 
L 359.5547 294.558049 
L 360.16505 294.64952 
L 360.632553 294.540626 
L 361.113041 294.266215 
L 361.892212 293.471292 
L 362.671383 292.245151 
L 363.489513 290.502855 
L 364.580352 287.46037 
L 365.671191 283.618607 
L 366.813975 278.76849 
L 368.2944 271.285328 
L 369.55406 263.921949 
L 371.229277 252.834412 
L 373.151232 238.514915 
L 375.514717 219.00991 
L 378.202857 195.063138 
L 386.604916 119.287411 
L 388.981388 100.673155 
L 390.825425 87.891234 
L 392.383767 78.432744 
L 393.760303 71.219638 
L 395.032948 65.574598 
L 396.227677 61.225392 
L 397.357475 57.989077 
L 398.227549 56.094329 
L 398.487273 55.632621 
L 398.487273 55.632621 
" clip-path="url(#p38cdab43f1)" style="fill: none; stroke: #1f77b4; stroke-width: 1.5; stroke-linecap: square"/>
   </g>
   <g id="line2d_15">
    <path d="M 73.832727 174.176274 
L 74.663843 174.070676 
L 75.105373 173.760018 
L 75.533917 173.167136 
L 76.00142 172.116619 
L 76.533853 170.329066 
L 77.144204 167.429885 
L 77.858444 162.864416 
L 78.767476 155.480347 
L 82.195828 125.98654 
L 82.987985 121.534973 
L 83.689239 118.758189 
L 84.273617 117.346929 
L 84.689175 116.861264 
L 85.000844 116.782861 
L 85.299526 116.939667 
L 85.702097 117.501558 
L 86.130641 118.525157 
L 86.663075 120.374168 
L 87.32537 123.486345 
L 88.208431 128.824305 
L 89.312256 136.969539 
L 91.156294 152.713581 
L 95.805347 193.119607 
L 98.636335 215.331487 
L 102.207535 241.441973 
L 104.895674 259.590165 
L 106.467002 269.137948 
L 107.843537 276.566664 
L 109.220073 282.923867 
L 110.414801 287.46037 
L 111.518627 290.777267 
L 112.570508 293.127189 
L 113.375651 294.379464 
L 113.986001 295.013224 
L 114.57038 295.363861 
L 115.206703 295.461866 
L 115.661219 295.35515 
L 116.401431 294.860773 
L 117.180602 293.922111 
L 117.985745 292.506496 
L 118.803875 290.616104 
L 119.933673 287.270896 
L 121.063471 283.100274 
L 122.245213 277.884275 
L 123.465914 271.622898 
L 124.751546 264.120135 
L 126.452736 252.86708 
L 127.998092 241.476819 
L 130.205743 223.583437 
L 133.374371 195.526589 
L 141.737472 119.966907 
L 144.204847 100.607819 
L 146.035898 87.917369 
L 147.59424 78.454523 
L 148.983761 71.171725 
L 150.503145 64.559711 
L 151.671901 60.487094 
L 152.801699 57.425008 
L 153.892538 55.30594 
L 154.710668 54.267096 
L 155.334004 53.794499 
L 155.970327 53.596312 
L 156.645609 53.705206 
L 157.126097 53.979617 
L 157.645545 54.460927 
L 158.424716 55.543328 
L 159.229859 57.109217 
L 160.035002 59.123747 
L 161.138828 62.603983 
L 162.242653 66.890032 
L 163.398423 72.206213 
L 164.606138 78.622219 
L 166.203439 88.363832 
L 167.982545 100.734135 
L 170.034362 116.69139 
L 172.722502 139.696233 
L 176.488495 174.160745 
L 181.319354 217.964532 
L 184.124369 241.006399 
L 186.137228 255.680888 
L 188.111127 268.173152 
L 189.513635 275.747784 
L 190.799267 281.651991 
L 192.006982 286.240763 
L 193.149766 289.688332 
L 194.032826 291.744241 
L 194.876928 293.199058 
L 195.72103 294.150788 
L 196.344367 294.529737 
L 196.980689 294.627741 
L 197.448192 294.51667 
L 197.928681 294.24008 
L 198.435142 293.76966 
L 198.967575 293.081453 
L 199.759732 291.685439 
L 200.850572 289.048038 
L 201.928425 285.646205 
L 203.045236 281.310065 
L 204.201007 275.991706 
L 205.72039 267.778957 
L 207.343663 257.593058 
L 209.161728 244.64562 
L 211.304448 227.636454 
L 214.213353 202.312179 
L 224.18674 112.993366 
L 226.589184 94.930111 
L 228.277388 83.818617 
L 230.043508 73.828726 
L 231.60185 66.548106 
L 232.796579 62.009425 
L 233.731584 59.115035 
L 234.835409 56.468923 
L 235.679511 55.016284 
L 236.315834 54.254029 
L 236.926185 53.792321 
L 237.562508 53.594134 
L 238.237789 53.70085 
L 238.990988 54.203938 
L 239.757172 55.129533 
L 240.549329 56.521192 
L 241.354473 58.385449 
L 242.185588 60.774573 
L 243.276428 64.61198 
L 244.717894 70.864645 
L 246.198319 78.606974 
L 247.795619 88.348587 
L 249.574726 100.716712 
L 251.639529 116.778505 
L 253.717318 134.399653 
L 256.769071 161.986299 
L 263.417996 222.287605 
L 265.703564 240.886616 
L 267.742394 255.752758 
L 269.391639 266.32414 
L 270.833105 274.35177 
L 272.14471 280.58919 
L 273.625135 286.319166 
L 274.741946 289.681798 
L 275.625007 291.737708 
L 276.482095 293.214304 
L 277.31321 294.14861 
L 277.936547 294.527559 
L 278.57287 294.627741 
L 279.040372 294.518848 
L 279.780585 294.024471 
L 280.559756 293.083631 
L 281.351913 291.689794 
L 282.157056 289.82336 
L 283.260881 286.543487 
L 284.364707 282.453447 
L 285.507491 277.394254 
L 287.000902 269.584412 
L 288.598202 259.838443 
L 290.364323 247.561788 
L 292.429126 231.506529 
L 294.519901 213.776488 
L 297.558668 186.306793 
L 304.051759 127.330286 
L 306.506147 107.29388 
L 308.531991 92.521386 
L 310.505891 80.031301 
L 311.908399 72.458846 
L 313.453754 65.491839 
L 314.635497 61.194901 
L 315.765295 57.960764 
L 316.86912 55.650044 
L 317.687249 54.487061 
L 318.544337 53.779253 
L 319.154688 53.594134 
L 319.842956 53.705206 
L 320.583168 54.20176 
L 321.349353 55.125177 
L 322.14151 56.516836 
L 322.959639 58.411583 
L 324.050479 61.652254 
L 325.154304 65.737939 
L 326.297088 70.790598 
L 327.803485 78.667954 
L 329.076131 86.325346 
L 330.790307 97.95735 
L 332.790179 113.187197 
L 335.283526 134.151375 
L 338.361251 161.964085 
L 345.010176 222.268004 
L 347.776233 244.534549 
L 349.685201 258.100502 
L 351.59417 269.854468 
L 352.970705 277.06104 
L 354.243351 282.699546 
L 355.425094 287.00084 
L 356.347113 289.71011 
L 357.217187 291.733352 
L 358.074275 293.209948 
L 358.710598 293.972202 
L 359.5547 294.536271 
L 360.16505 294.627741 
L 360.632553 294.518848 
L 361.113041 294.244436 
L 361.892212 293.449513 
L 362.671383 292.223373 
L 363.489513 290.481076 
L 364.580352 287.438592 
L 365.671191 283.596829 
L 366.813975 278.746712 
L 368.2944 271.26355 
L 369.55406 263.900171 
L 371.229277 252.812633 
L 373.151232 238.493137 
L 375.514717 218.988131 
L 378.202857 195.041359 
L 386.604916 119.265633 
L 388.981388 100.651376 
L 390.825425 87.869456 
L 392.383767 78.410965 
L 393.760303 71.197859 
L 395.032948 65.55282 
L 396.227677 61.203613 
L 397.357475 57.967298 
L 398.227549 56.072551 
L 398.487273 55.610842 
L 398.487273 55.610842 
" clip-path="url(#p38cdab43f1)" style="fill: none; stroke: #ff7f0e; stroke-width: 1.5; stroke-linecap: square"/>
   </g>
   <g id="line2d_16">
    <path d="M 73.832727 174.176274 
L 74.663843 174.070654 
L 75.105373 173.759952 
L 75.533917 173.166918 
L 76.00142 172.116205 
L 76.533853 170.328195 
L 77.144204 167.428579 
L 77.858444 162.86202 
L 78.780463 155.361 
L 82.169856 126.141169 
L 83.052916 121.217004 
L 83.75417 118.544758 
L 84.325562 117.246747 
L 84.689175 116.843841 
L 85.052788 116.778505 
L 85.377443 117.000648 
L 85.702097 117.484135 
L 86.130641 118.507734 
L 86.663075 120.356746 
L 87.32537 123.466744 
L 88.208431 128.806882 
L 89.312256 136.949939 
L 91.156294 152.694198 
L 95.805347 193.099788 
L 98.636335 215.311886 
L 102.207535 241.420194 
L 104.895674 259.570565 
L 106.804643 271.02834 
L 108.414929 279.321669 
L 109.713548 284.890484 
L 110.869318 288.908654 
L 111.947171 291.809577 
L 112.7653 293.451691 
L 113.570444 294.590717 
L 114.388573 295.259324 
L 114.998924 295.442265 
L 115.661219 295.333371 
L 116.401431 294.838995 
L 117.180602 293.900333 
L 117.985745 292.484717 
L 118.803875 290.594326 
L 119.647977 288.174712 
L 120.777775 284.20881 
L 121.946531 279.260689 
L 123.154246 273.282435 
L 124.73856 264.178938 
L 126.452736 252.845301 
L 127.998092 241.45504 
L 130.205743 223.561659 
L 133.374371 195.50481 
L 141.737472 119.945128 
L 144.204847 100.58604 
L 146.035898 87.89559 
L 147.59424 78.432744 
L 148.983761 71.149946 
L 150.503145 64.537932 
L 151.671901 60.465315 
L 152.801699 57.403229 
L 153.892538 55.284162 
L 154.710668 54.245318 
L 155.334004 53.77272 
L 155.970327 53.574534 
L 156.645609 53.683427 
L 157.126097 53.957839 
L 157.645545 54.439148 
L 158.424716 55.52155 
L 159.229859 57.087438 
L 160.035002 59.101968 
L 161.138828 62.582205 
L 162.242653 66.868253 
L 163.398423 72.184434 
L 164.606138 78.60044 
L 166.203439 88.342054 
L 167.982545 100.712356 
L 170.034362 116.669611 
L 172.722502 139.674454 
L 176.488495 174.138967 
L 181.319354 217.942754 
L 184.124369 240.98462 
L 186.137228 255.65911 
L 188.111127 268.151373 
L 189.513635 275.726006 
L 190.799267 281.630212 
L 192.006982 286.218984 
L 193.149766 289.666553 
L 194.032826 291.722462 
L 194.876928 293.17728 
L 195.72103 294.129009 
L 196.344367 294.507958 
L 196.980689 294.605963 
L 197.448192 294.494891 
L 197.928681 294.218302 
L 198.435142 293.747882 
L 198.967575 293.059675 
L 199.759732 291.66366 
L 200.850572 289.026259 
L 201.928425 285.624426 
L 203.045236 281.288286 
L 204.201007 275.969927 
L 205.72039 267.757179 
L 207.343663 257.57128 
L 209.161728 244.623841 
L 211.304448 227.614675 
L 214.213353 202.2904 
L 224.18674 112.971588 
L 226.589184 94.908332 
L 228.277388 83.796838 
L 230.043508 73.806948 
L 231.60185 66.526328 
L 232.796579 61.987646 
L 233.731584 59.093257 
L 234.835409 56.447144 
L 235.679511 54.994505 
L 236.315834 54.23225 
L 236.926185 53.770542 
L 237.562508 53.572356 
L 238.237789 53.679071 
L 238.990988 54.182159 
L 239.757172 55.107754 
L 240.549329 56.499413 
L 241.354473 58.36367 
L 242.185588 60.752794 
L 243.276428 64.590201 
L 244.717894 70.842866 
L 246.198319 78.585195 
L 247.795619 88.326808 
L 249.574726 100.694933 
L 251.639529 116.756726 
L 253.717318 134.377874 
L 256.769071 161.96452 
L 263.417996 222.265826 
L 265.703564 240.864837 
L 267.742394 255.730979 
L 269.391639 266.302361 
L 270.833105 274.329991 
L 272.14471 280.567411 
L 273.625135 286.297388 
L 274.741946 289.660019 
L 275.625007 291.715929 
L 276.482095 293.192525 
L 277.31321 294.126831 
L 277.936547 294.505781 
L 278.57287 294.605963 
L 279.040372 294.497069 
L 279.780585 294.002693 
L 280.559756 293.061853 
L 281.351913 291.668016 
L 282.157056 289.801581 
L 283.260881 286.521708 
L 284.364707 282.431668 
L 285.507491 277.372476 
L 287.000902 269.562633 
L 288.598202 259.816664 
L 290.364323 247.54001 
L 292.429126 231.48475 
L 294.519901 213.754709 
L 297.558668 186.285015 
L 304.051759 127.308507 
L 306.506147 107.272101 
L 308.531991 92.499608 
L 310.505891 80.009522 
L 311.908399 72.437067 
L 313.453754 65.470061 
L 314.635497 61.173123 
L 315.765295 57.938985 
L 316.86912 55.628265 
L 317.687249 54.465283 
L 318.544337 53.757475 
L 319.154688 53.572356 
L 319.842956 53.683427 
L 320.583168 54.179982 
L 321.349353 55.103398 
L 322.14151 56.495058 
L 322.959639 58.389805 
L 324.050479 61.630475 
L 325.154304 65.71616 
L 326.297088 70.768819 
L 327.803485 78.646175 
L 329.076131 86.303567 
L 330.790307 97.935572 
L 332.790179 113.165418 
L 335.283526 134.129597 
L 338.361251 161.942306 
L 345.010176 222.246225 
L 347.776233 244.51277 
L 349.685201 258.078724 
L 351.59417 269.832689 
L 352.970705 277.039262 
L 354.243351 282.677767 
L 355.425094 286.979061 
L 356.347113 289.688332 
L 357.217187 291.711573 
L 358.074275 293.188169 
L 358.710598 293.950424 
L 359.5547 294.514492 
L 360.16505 294.605963 
L 360.632553 294.497069 
L 361.113041 294.222657 
L 361.892212 293.427735 
L 362.671383 292.201594 
L 363.489513 290.459298 
L 364.580352 287.416813 
L 365.671191 283.57505 
L 366.813975 278.724933 
L 368.2944 271.241771 
L 369.55406 263.878392 
L 371.229277 252.790855 
L 373.151232 238.471358 
L 375.514717 218.966353 
L 378.202857 195.019581 
L 386.604916 119.243854 
L 388.981388 100.629597 
L 390.825425 87.847677 
L 392.383767 78.389187 
L 393.760303 71.176081 
L 395.032948 65.531041 
L 396.227677 61.181834 
L 397.357475 57.945519 
L 398.227549 56.050772 
L 398.487273 55.589064 
L 398.487273 55.589064 
" clip-path="url(#p38cdab43f1)" style="fill: none; stroke: #2ca02c; stroke-width: 1.5; stroke-linecap: square"/>
   </g>
   <g id="patch_3">
    <path d="M 57.6 307.584 
L 57.6 41.472 
" style="fill: none; stroke: #000000; stroke-width: 0.8; stroke-linejoin: miter; stroke-linecap: square"/>
   </g>
   <g id="patch_4">
    <path d="M 414.72 307.584 
L 414.72 41.472 
" style="fill: none; stroke: #000000; stroke-width: 0.8; stroke-linejoin: miter; stroke-linecap: square"/>
   </g>
   <g id="patch_5">
    <path d="M 57.6 307.584 
L 414.72 307.584 
" style="fill: none; stroke: #000000; stroke-width: 0.8; stroke-linejoin: miter; stroke-linecap: square"/>
   </g>
   <g id="patch_6">
    <path d="M 57.6 41.472 
L 414.72 41.472 
" style="fill: none; stroke: #000000; stroke-width: 0.8; stroke-linejoin: miter; stroke-linecap: square"/>
   </g>
   <g id="legend_1">
    <g id="patch_7">
     <path d="M 183.235 198.045187 
L 289.085 198.045187 
Q 291.085 198.045187 291.085 196.045187 
L 291.085 153.010812 
Q 291.085 151.010812 289.085 151.010812 
L 183.235 151.010812 
Q 181.235 151.010812 181.235 153.010812 
L 181.235 196.045187 
Q 181.235 198.045187 183.235 198.045187 
z
" style="fill: #ffffff; opacity: 0.8; stroke: #cccccc; stroke-linejoin: miter"/>
    </g>
    <g id="line2d_17">
     <path d="M 185.235 159.10925 
L 195.235 159.10925 
L 205.235 159.10925 
" style="fill: none; stroke: #1f77b4; stroke-width: 1.5; stroke-linecap: square"/>
    </g>
    <g id="text_16">
     <!-- ['x1', 'x2', 'x3'] -->
     <g transform="translate(213.235 162.60925) scale(0.1 -0.1)">
      <defs>
       <path id="DejaVuSans-5b" d="M 550 4863 
L 1875 4863 
L 1875 4416 
L 1125 4416 
L 1125 -397 
L 1875 -397 
L 1875 -844 
L 550 -844 
L 550 4863 
z
" transform="scale(0.015625)"/>
       <path id="DejaVuSans-27" d="M 1147 4666 
L 1147 2931 
L 616 2931 
L 616 4666 
L 1147 4666 
z
" transform="scale(0.015625)"/>
       <path id="DejaVuSans-2c" d="M 750 794 
L 1409 794 
L 1409 256 
L 897 -744 
L 494 -744 
L 750 256 
L 750 794 
z
" transform="scale(0.015625)"/>
       <path id="DejaVuSans-20" transform="scale(0.015625)"/>
       <path id="DejaVuSans-5d" d="M 1947 4863 
L 1947 -844 
L 622 -844 
L 622 -397 
L 1369 -397 
L 1369 4416 
L 622 4416 
L 622 4863 
L 1947 4863 
z
" transform="scale(0.015625)"/>
      </defs>
      <use xlink:href="#DejaVuSans-5b"/>
      <use xlink:href="#DejaVuSans-27" x="39.013672"/>
      <use xlink:href="#DejaVuSans-78" x="66.503906"/>
      <use xlink:href="#DejaVuSans-31" x="125.683594"/>
      <use xlink:href="#DejaVuSans-27" x="189.306641"/>
      <use xlink:href="#DejaVuSans-2c" x="216.796875"/>
      <use xlink:href="#DejaVuSans-20" x="248.583984"/>
      <use xlink:href="#DejaVuSans-27" x="280.371094"/>
      <use xlink:href="#DejaVuSans-78" x="307.861328"/>
      <use xlink:href="#DejaVuSans-32" x="367.041016"/>
      <use xlink:href="#DejaVuSans-27" x="430.664062"/>
      <use xlink:href="#DejaVuSans-2c" x="458.154297"/>
      <use xlink:href="#DejaVuSans-20" x="489.941406"/>
      <use xlink:href="#DejaVuSans-27" x="521.728516"/>
      <use xlink:href="#DejaVuSans-78" x="549.21875"/>
      <use xlink:href="#DejaVuSans-33" x="608.398438"/>
      <use xlink:href="#DejaVuSans-27" x="672.021484"/>
      <use xlink:href="#DejaVuSans-5d" x="699.511719"/>
     </g>
    </g>
    <g id="line2d_18">
     <path d="M 185.235 173.787375 
L 195.235 173.787375 
L 205.235 173.787375 
" style="fill: none; stroke: #ff7f0e; stroke-width: 1.5; stroke-linecap: square"/>
    </g>
    <g id="text_17">
     <!-- ['x1', 'x2', 'x3'] -->
     <g transform="translate(213.235 177.287375) scale(0.1 -0.1)">
      <use xlink:href="#DejaVuSans-5b"/>
      <use xlink:href="#DejaVuSans-27" x="39.013672"/>
      <use xlink:href="#DejaVuSans-78" x="66.503906"/>
      <use xlink:href="#DejaVuSans-31" x="125.683594"/>
      <use xlink:href="#DejaVuSans-27" x="189.306641"/>
      <use xlink:href="#DejaVuSans-2c" x="216.796875"/>
      <use xlink:href="#DejaVuSans-20" x="248.583984"/>
      <use xlink:href="#DejaVuSans-27" x="280.371094"/>
      <use xlink:href="#DejaVuSans-78" x="307.861328"/>
      <use xlink:href="#DejaVuSans-32" x="367.041016"/>
      <use xlink:href="#DejaVuSans-27" x="430.664062"/>
      <use xlink:href="#DejaVuSans-2c" x="458.154297"/>
      <use xlink:href="#DejaVuSans-20" x="489.941406"/>
      <use xlink:href="#DejaVuSans-27" x="521.728516"/>
      <use xlink:href="#DejaVuSans-78" x="549.21875"/>
      <use xlink:href="#DejaVuSans-33" x="608.398438"/>
      <use xlink:href="#DejaVuSans-27" x="672.021484"/>
      <use xlink:href="#DejaVuSans-5d" x="699.511719"/>
     </g>
    </g>
    <g id="line2d_19">
     <path d="M 185.235 188.4655 
L 195.235 188.4655 
L 205.235 188.4655 
" style="fill: none; stroke: #2ca02c; stroke-width: 1.5; stroke-linecap: square"/>
    </g>
    <g id="text_18">
     <!-- ['x1', 'x2', 'x3'] -->
     <g transform="translate(213.235 191.9655) scale(0.1 -0.1)">
      <use xlink:href="#DejaVuSans-5b"/>
      <use xlink:href="#DejaVuSans-27" x="39.013672"/>
      <use xlink:href="#DejaVuSans-78" x="66.503906"/>
      <use xlink:href="#DejaVuSans-31" x="125.683594"/>
      <use xlink:href="#DejaVuSans-27" x="189.306641"/>
      <use xlink:href="#DejaVuSans-2c" x="216.796875"/>
      <use xlink:href="#DejaVuSans-20" x="248.583984"/>
      <use xlink:href="#DejaVuSans-27" x="280.371094"/>
      <use xlink:href="#DejaVuSans-78" x="307.861328"/>
      <use xlink:href="#DejaVuSans-32" x="367.041016"/>
      <use xlink:href="#DejaVuSans-27" x="430.664062"/>
      <use xlink:href="#DejaVuSans-2c" x="458.154297"/>
      <use xlink:href="#DejaVuSans-20" x="489.941406"/>
      <use xlink:href="#DejaVuSans-27" x="521.728516"/>
      <use xlink:href="#DejaVuSans-78" x="549.21875"/>
      <use xlink:href="#DejaVuSans-33" x="608.398438"/>
      <use xlink:href="#DejaVuSans-27" x="672.021484"/>
      <use xlink:href="#DejaVuSans-5d" x="699.511719"/>
     </g>
    </g>
   </g>
  </g>
 </g>
 <defs>
  <clipPath id="p38cdab43f1">
   <rect x="57.6" y="41.472" width="357.12" height="266.112"/>
  </clipPath>
 </defs>
</svg>
