<?xml version="1.0" encoding="UTF-8" standalone="no"?>
<!-- Created with Inkscape (http://www.inkscape.org/) -->

<svg
   width="7.0176387cm"
   height="9.3902378cm"
   viewBox="0 0 70.176387 93.902379"
   version="1.1"
   id="svg1"
   xml:space="preserve"
   inkscape:version="1.3 (0e150ed6c4, 2023-07-21)"
   sodipodi:docname="area_de_garganta.svg"
   xmlns:inkscape="http://www.inkscape.org/namespaces/inkscape"
   xmlns:sodipodi="http://sodipodi.sourceforge.net/DTD/sodipodi-0.dtd"
   xmlns="http://www.w3.org/2000/svg"
   xmlns:svg="http://www.w3.org/2000/svg"><sodipodi:namedview
     id="namedview1"
     pagecolor="#ffffff"
     bordercolor="#eeeeee"
     borderopacity="1"
     inkscape:showpageshadow="0"
     inkscape:pageopacity="0"
     inkscape:pagecheckerboard="0"
     inkscape:deskcolor="#505050"
     inkscape:document-units="mm"
     inkscape:zoom="2.4618848"
     inkscape:cx="89.15933"
     inkscape:cy="209.79861"
     inkscape:window-width="1920"
     inkscape:window-height="1003"
     inkscape:window-x="0"
     inkscape:window-y="0"
     inkscape:window-maximized="1"
     inkscape:current-layer="layer1"
     showguides="true" /><defs
     id="defs1"><linearGradient
       id="swatch1"
       inkscape:swatch="solid"><stop
         style="stop-color:#ff00ff;stop-opacity:0.09973432;"
         offset="0"
         id="stop1" /></linearGradient><marker
       style="overflow:visible"
       id="Triangle"
       refX="0"
       refY="0"
       orient="auto-start-reverse"
       inkscape:stockid="Triangle arrow"
       markerWidth="2"
       markerHeight="2"
       viewBox="0 0 1 1"
       inkscape:isstock="true"
       inkscape:collect="always"
       preserveAspectRatio="xMidYMid"><path
         transform="scale(0.5)"
         style="fill:context-stroke;fill-rule:evenodd;stroke:context-stroke;stroke-width:1pt"
         d="M 5.77,0 -2.88,5 V -5 Z"
         id="path135" /></marker><inkscape:path-effect
       effect="bspline"
       id="path-effect1"
       is_visible="true"
       lpeversion="1.3"
       weight="33.333333"
       steps="2"
       helper_size="0"
       apply_no_weight="true"
       apply_with_weight="true"
       only_selected="false"
       uniform="false" /></defs><g
     inkscape:label="Camada 1"
     inkscape:groupmode="layer"
     id="layer1"
     transform="translate(0.0881945,0.10237218)"><ellipse
       style="display:none;fill:#e6e6e6;stroke:#000000;stroke-width:0.358562"
       id="path8"
       cx="35"
       cy="11.771092"
       rx="34.775436"
       ry="11.591811" /><ellipse
       style="fill:#0093dd;fill-opacity:0.10196079;stroke:#000000;stroke-width:0.176389;stroke-dasharray:none"
       id="ellipse14-2"
       cx="35"
       cy="21.692682"
       rx="35"
       ry="8.75" /><path
       id="path11-9"
       style="fill:#e6e6e6;stroke:#000000;stroke-width:0.176389;stroke-dasharray:none"
       d="m 33.556738,30.349784 0.02079,-1.501756 C 33.742951,16.900907 21.868975,17.472804 21.868975,17.472804 h 26.26205 c 0,0 -11.873977,-0.571897 -11.708557,11.375224 l 0.02079,1.501756"
       sodipodi:nodetypes="csccsc" /><ellipse
       style="fill:#e6e6e6;fill-opacity:1;stroke:#000000;stroke-width:0.176389;stroke-dasharray:none"
       id="path14-1"
       cx="35"
       cy="9.7941551"
       rx="35"
       ry="8.75" /><ellipse
       style="fill:#e6e6e6;fill-opacity:1;stroke:#000000;stroke-width:0.176389;stroke-dasharray:none"
       id="ellipse15-2"
       cx="35"
       cy="8.7358227"
       rx="35"
       ry="8.75" /><path
       id="ellipse24"
       style="fill:#0093dd;fill-opacity:0.10196079;stroke:#000000;stroke-width:0.176389;stroke-dasharray:none"
       d="M 35,76.211583 A 35,8.75 0 0 0 6.9e-5,84.961436 35,8.75 0 0 0 35,93.711807 35,8.75 0 0 0 69.999931,84.961436 35,8.75 0 0 0 35,76.211583 Z m 0,8.385018 A 1.4596345,0.36490864 0 0 1 36.459859,84.961436 1.4596345,0.36490864 0 0 1 35,85.326272 1.4596345,0.36490864 0 0 1 33.540657,84.961436 1.4596345,0.36490864 0 0 1 35,84.596601 Z" /><path
       style="fill:#ff00ff;fill-opacity:0.1;stroke:#000000;stroke-width:0.176;stroke-dasharray:none;marker-end:url(#Triangle)"
       d="m 34.999998,40.210959 c 0,4.454361 0,8.908722 0,13.363083"
       id="path1"
       inkscape:path-effect="#path-effect1"
       inkscape:original-d="m 34.999998,40.210959 c 0,4.454361 0,8.908722 0,13.363083"
       transform="translate(2e-6,5.809643)" /></g></svg>
