<?xml version="1.0" encoding="UTF-8" standalone="no"?>
<!-- Created with Inkscape (http://www.inkscape.org/) -->

<svg
   width="7.0180001cm"
   height="9.3800001cm"
   viewBox="0 0 70.180001 93.800003"
   version="1.1"
   id="svg1"
   xml:space="preserve"
   inkscape:version="1.3 (0e150ed6c4, 2023-07-21)"
   sodipodi:docname="area_de_cortina.svg"
   xmlns:inkscape="http://www.inkscape.org/namespaces/inkscape"
   xmlns:sodipodi="http://sodipodi.sourceforge.net/DTD/sodipodi-0.dtd"
   xmlns="http://www.w3.org/2000/svg"
   xmlns:svg="http://www.w3.org/2000/svg"><sodipodi:namedview
     id="namedview1"
     pagecolor="#feffff"
     bordercolor="#eeeeee"
     borderopacity="1"
     inkscape:showpageshadow="0"
     inkscape:pageopacity="0"
     inkscape:pagecheckerboard="0"
     inkscape:deskcolor="#505050"
     inkscape:document-units="mm"
     inkscape:zoom="1.7408156"
     inkscape:cx="93.059829"
     inkscape:cy="212.83128"
     inkscape:window-width="1920"
     inkscape:window-height="1003"
     inkscape:window-x="0"
     inkscape:window-y="0"
     inkscape:window-maximized="1"
     inkscape:current-layer="layer1"
     showguides="true" /><defs
     id="defs1"><marker
       style="overflow:visible"
       id="Triangle"
       refX="0"
       refY="0"
       orient="auto-start-reverse"
       inkscape:stockid="Triangle arrow"
       markerWidth="2"
       markerHeight="2"
       viewBox="0 0 1 1"
       inkscape:isstock="true"
       inkscape:collect="always"
       preserveAspectRatio="xMidYMid"><path
         transform="scale(0.5)"
         style="fill:context-stroke;fill-rule:evenodd;stroke:context-stroke;stroke-width:1pt"
         d="M 5.77,0 -2.88,5 V -5 Z"
         id="path135" /></marker><inkscape:path-effect
       effect="bspline"
       id="path-effect1"
       is_visible="true"
       lpeversion="1.3"
       weight="33.333333"
       steps="2"
       helper_size="0"
       apply_no_weight="true"
       apply_with_weight="true"
       only_selected="false"
       uniform="false" /></defs><g
     inkscape:label="Camada 1"
     inkscape:groupmode="layer"
     id="layer1"
     transform="translate(0.0881945)"><ellipse
       style="display:none;fill:#e6e6e6;stroke:#000000;stroke-width:0.358562"
       id="path8"
       cx="35"
       cy="11.771092"
       rx="34.775436"
       ry="11.591811" /><g
       id="g1"
       transform="translate(0,1.1465274)"><ellipse
         style="fill:#e6e6e6;fill-opacity:1;stroke:#000000;stroke-width:0.176389;stroke-dasharray:none"
         id="ellipse14"
         cx="35"
         cy="20.648527"
         rx="35"
         ry="8.75" /><path
         id="path11"
         style="fill:#e6e6e6;stroke:#000000;stroke-width:0.176389;stroke-dasharray:none"
         d="m 33.556738,29.4855 0.02079,-1.501756 C 33.742951,16.036623 21.868975,16.60852 21.868975,16.60852 h 26.26205 c 0,0 -11.873977,-0.571897 -11.708557,11.375224 l 0.02079,1.501756"
         sodipodi:nodetypes="csccsc" /><ellipse
         style="fill:#e6e6e6;fill-opacity:1;stroke:#000000;stroke-width:0.176389;stroke-dasharray:none"
         id="path14"
         cx="35"
         cy="8.75"
         rx="35"
         ry="8.75" /><ellipse
         style="fill:#e6e6e6;fill-opacity:1;stroke:#000000;stroke-width:0.176389;stroke-dasharray:none"
         id="ellipse15"
         cx="35"
         cy="7.6916671"
         rx="35"
         ry="8.75" /><path
         id="path16"
         style="fill:#ff00ff;fill-opacity:0.1;stroke:#000000;stroke-width:0.176389"
         d="m 35,29.398527 c -19.329966,0 -35,-3.917508 -34.9946976,-8.642309 L 0.00518705,7.7981798 C 2.2091391e-7,12.524159 15.670034,16.441667 35,16.441667 c 19.329966,0 35,-3.917508 34.994697,-8.6423096 L 69.994813,20.75504 C 70,25.481019 54.329966,29.398527 35,29.398527 Z" /></g><path
       id="path18"
       style="fill:#ff00ff;fill-opacity:0.101509;stroke:#000000;stroke-width:0.176389"
       d="M 35,93.712688 C 15.670034,93.712688 -2.6252138e-7,89.79518 0.00530214,85.070379 L 0.00518679,72.112341 C -4.160739e-8,76.83832 15.670034,80.755828 35,80.755828 c 19.329966,0 35,-3.917508 34.994697,-8.64231 l 1.16e-4,12.955683 C 70,89.79518 54.329966,93.712688 35,93.712688 Z" /><path
       style="fill:#ff00ff;fill-opacity:0.101509;stroke:#000000;stroke-width:0.176389"
       d="m 35.000002,74.312682 c -19.329958,0 -34.9999987374787,3.917508 -34.9999987374787,8.75 V 70 C 3.2625213e-6,65.167509 15.670044,61.250001 35.000002,61.250001 c 19.329962,0 34.999996,3.917508 34.999995,8.749999 v 13.062682 c 1e-6,-4.832492 -15.670033,-8.75 -34.999995,-8.75 z"
       id="path19"
       sodipodi:nodetypes="sccsccs" /><path
       style="fill:#ff00ff;fill-opacity:0.1;stroke:#000000;stroke-width:0.176;stroke-dasharray:none;marker-end:url(#Triangle)"
       d="m 34.999998,40.210959 c 0,4.454361 0,8.908722 0,13.363083"
       id="path1"
       inkscape:path-effect="#path-effect1"
       inkscape:original-d="m 34.999998,40.210959 c 0,4.454361 0,8.908722 0,13.363083"
       transform="translate(0,-1.6199619)" /></g></svg>
