<?xml version="1.0" encoding="UTF-8" standalone="no"?>
<!-- Created with Inkscape (http://www.inkscape.org/) -->

<svg
   width="7cm"
   height="7cm"
   viewBox="0 0 70 70.000001"
   version="1.1"
   id="svg1"
   xml:space="preserve"
   inkscape:version="1.3 (0e150ed6c4, 2023-07-21)"
   sodipodi:docname="area_de_garganta.svg"
   xmlns:inkscape="http://www.inkscape.org/namespaces/inkscape"
   xmlns:sodipodi="http://sodipodi.sourceforge.net/DTD/sodipodi-0.dtd"
   xmlns="http://www.w3.org/2000/svg"
   xmlns:svg="http://www.w3.org/2000/svg"><sodipodi:namedview
     id="namedview1"
     pagecolor="#505050"
     bordercolor="#eeeeee"
     borderopacity="1"
     inkscape:showpageshadow="0"
     inkscape:pageopacity="0"
     inkscape:pagecheckerboard="0"
     inkscape:deskcolor="#505050"
     inkscape:document-units="mm"
     inkscape:zoom="3.4816309"
     inkscape:cx="133.70171"
     inkscape:cy="190.57161"
     inkscape:window-width="1920"
     inkscape:window-height="1003"
     inkscape:window-x="0"
     inkscape:window-y="0"
     inkscape:window-maximized="1"
     inkscape:current-layer="layer1"
     showguides="true" /><defs
     id="defs1"><linearGradient
       id="swatch1"
       inkscape:swatch="solid"><stop
         style="stop-color:#ff00ff;stop-opacity:0.09973432;"
         offset="0"
         id="stop1" /></linearGradient></defs><g
     inkscape:label="Camada 1"
     inkscape:groupmode="layer"
     id="layer1"><ellipse
       style="display:none;fill:#e6e6e6;stroke:#000000;stroke-width:0.358562"
       id="path8"
       cx="35"
       cy="11.771092"
       rx="34.775436"
       ry="11.591811" /><ellipse
       style="fill:#ff00ff;fill-opacity:0.10008401;stroke:#000000;stroke-width:0.176389;stroke-dasharray:none"
       id="ellipse14"
       cx="35"
       cy="35.553402"
       rx="35"
       ry="8.75" /><path
       id="path11"
       style="fill:#e6e6e6;stroke:#000000;stroke-width:0.174894;stroke-dasharray:none"
       d="m 33.556738,44.209735 0.02079,-15.271403 C 33.59352,17.191576 21.868975,17.754973 21.868975,17.754973 h 26.26205 c 0,0 -11.724549,-0.563397 -11.708557,11.183359 l 0.02079,15.271404"
       sodipodi:nodetypes="csccsc" /><ellipse
       style="fill:#e6e6e6;fill-opacity:1;stroke:#000000;stroke-width:0.176389;stroke-dasharray:none"
       id="path14"
       cx="35"
       cy="9.8965273"
       rx="35"
       ry="8.75" /><ellipse
       style="fill:#e6e6e6;fill-opacity:1;stroke:#000000;stroke-width:0.176389;stroke-dasharray:none"
       id="ellipse15"
       cx="35"
       cy="8.8381948"
       rx="35"
       ry="8.75" /><path
       id="ellipse24"
       style="fill:#ff00ff;fill-opacity:0.100084;stroke:#000000;stroke-width:0.176389;stroke-dasharray:none"
       d="M 34.999931,52.411582 A 35,8.75 0 0 0 0,61.161435 35,8.75 0 0 0 34.999931,69.911806 35,8.75 0 0 0 69.999862,61.161435 35,8.75 0 0 0 34.999931,52.411582 Z m 0,8.385018 a 1.4596345,0.36490864 0 0 1 1.459859,0.364835 1.4596345,0.36490864 0 0 1 -1.459859,0.364836 1.4596345,0.36490864 0 0 1 -1.459343,-0.364836 1.4596345,0.36490864 0 0 1 1.459343,-0.364835 z" /></g></svg>
